<?xml version="1.0" encoding="utf-8"?>
<!-- Generator: Adobe Illustrator 27.5.0, SVG Export Plug-In . SVG Version: 6.00 Build 0)  -->
<svg version="1.1" id="Layer_1" xmlns="http://www.w3.org/2000/svg" xmlns:xlink="http://www.w3.org/1999/xlink" x="0px" y="0px"
	 viewBox="0 0 2850.109 1864.511" style="enable-background:new 0 0 2850.109 1864.511;" xml:space="preserve">
<g>
	<g>
		<g>
			<g>
				<path style="fill:#5C3D28;" d="M2806.552,497.068c-2.659-8.88-11.171-14.191-18.417-19.083
					c-8.304-5.605-16.719-11.046-25.237-16.318c-34.536-21.373-70.779-39.985-108.256-55.635
					c-37.528-15.671-76.284-28.432-115.808-38.019c-39.854-9.667-80.673-16.557-121.813-15.513
					c-40.509,1.029-81.372,10.73-114.48,34.389c5.893-10.965,13.837-20.732,23.523-28.718c2.804-2.311,3.515-9.666-1.9-7.696
					c-28.62,10.411-54.088,27.853-74.415,50.268c4.965-11.296,11.073-22.05,18.287-32.179c2.147-3.015,0.212-7.852-3.812-6.4
					c-60.799,21.941-110.021,65.921-156.618,109.228c-46.745,43.443-93.546,89.587-151.829,117.397
					c-17.171,8.194-35.269,14.932-54.068,18.188c-18.101,3.135-37.917,3.459-55.551-2.341c-11.455-6.32-24.807-12.514-37.235-6.746
					c-13.083,6.07-14.418,22.27-13.051,34.812c3.832,35.177,23.587,66.364,45.737,92.994c5.401,6.492,11.073,14.286,19.185,17.52
					c-0.14,0.803,0.17,1.605,1.167,1.605c16.911,0.008,33.741,3.312,50.064,7.578c16.396,4.285,32.381,9.587,48.045,16.065
					c31.521,13.039,61.557,29.422,92.046,44.646c30.669,15.315,61.934,29.121,94.7,39.345
					c33.544,10.467,68.112,17.664,103.053,21.404c68.943,7.38,139.401,1.354,205.502-19.922
					c72.585-23.363,135.547-66.493,191.561-117.47c53.324-48.53,100.555-104.847,134.068-168.942
					c4.144-7.927,7.672-16.208,11.165-24.439c0.418-0.988,0.414-1.817,0.221-2.53c2.787-5.777,5.54-11.57,8.276-17.377
					C2804.46,515.121,2809.294,506.226,2806.552,497.068z"/>
				<path style="fill:#A56D4B;" d="M2794.719,518.629c-5.438,11.404-10.832,22.807-15.973,34.349
					c-0.346,0.776-0.395,1.442-0.331,2.05c-14.066,26.907-29.849,52.939-47.93,77.34c-21.312,28.759-45.227,55.548-70.91,80.464
					c-53.949,52.34-115.614,98.348-186.454,124.898c-64.73,24.259-134.954,32.871-203.762,27.803
					c-69.05-5.086-135.768-24.083-198.13-53.869c-30.422-14.529-60.139-30.484-91.174-43.71
					c-22.755-9.698-46.238-18.197-70.539-22.679c-0.016-0.001-0.031,0-0.045-0.001c-8.965-0.399-18.166-1.13-26.992-3.142
					c-0.424-0.017-0.85-0.037-1.273-0.057c0.127-0.048,0.251-0.106,0.376-0.155c-2.009-0.481-4.006-1.006-5.967-1.638
					c-2.741-0.883-5.626-2.058-8.207-3.592c-0.475-0.086-0.957-0.15-1.421-0.27c-6.7-1.737-11.396-7.645-15.737-12.631
					c-9.897-11.366-19.216-23.291-27.175-36.105c-7.841-12.621-14.349-26.253-18.117-40.663
					c-2.852-10.909-7.202-28.646,0.309-38.698c5.48-7.334,15.764-5.888,23.548-4.221c5.542,1.187,11.325,2.373,16.915,3.889
					c13.87,6.027,28.467,8.803,43.698,7.933c16.919-0.969,33.52-5.21,49.321-11.204c30.257-11.478,58.079-28.537,83.763-48.077
					c52.537-39.973,96.866-89.45,148.585-130.394c25.711-20.354,53.254-38.102,83.438-50.827
					c-8.238,13.699-14.73,28.395-19.275,43.757c-1.577,5.336,3.895,6.286,6.635,2.418c17.02-24.033,40.093-43.134,66.486-55.833
					c-8.026,9.627-14.385,20.554-18.77,32.486c-1.185,3.226,1.944,6.943,5.066,4.276c61.514-52.561,150.735-45.363,224.472-29.241
					c75.619,16.534,148.604,44.686,215.815,83.072c18.628,10.639,37.489,21.72,54.752,34.494c4.202,3.108,8.921,7.236,9.604,12.748
					C2799.968,508.839,2796.89,514.077,2794.719,518.629z"/>
				<path style="fill:#CBC19B;" d="M2789.715,490.852c-17.263-12.774-36.124-23.855-54.752-34.494
					c-51.41-29.362-106.206-52.712-162.967-69.478c-33.394-4.019-67.27-3.58-100.406,2.555
					c-61.444,11.374-115.957,44.225-165.079,81.611c-52.587,40.022-100.017,86.333-152.501,126.471
					c-24.834,18.992-49.877,38.118-77.523,52.896c-26.789,14.32-56.658,24.599-87.409,22.074c-1.676-0.138-2.455-1.951-1.343-3.242
					c25.133-29.171,49.675-58.846,73.593-89.02c20.592-25.98,40.885-52.237,60.284-79.122c14.811-20.525,30.33-40.577,47.144-59.509
					c15.396-17.334,31.916-33.852,50.141-48.229c-16.681,9.725-32.573,20.829-47.801,32.885
					c-51.719,40.944-96.048,90.421-148.585,130.394c-25.684,19.541-53.505,36.599-83.763,48.077
					c-15.802,5.994-32.402,10.235-49.321,11.204c-15.23,0.87-29.827-1.907-43.698-7.933c-5.59-1.517-11.373-2.702-16.915-3.889
					c-7.784-1.669-18.068-3.113-23.548,4.221c-7.511,10.051-3.161,27.789-0.309,38.698c3.768,14.41,10.276,28.042,18.117,40.663
					c7.959,12.814,17.278,24.74,27.175,36.105c4.341,4.986,9.036,10.894,15.737,12.632c0.464,0.12,0.946,0.184,1.421,0.27
					c2.582,1.535,5.466,2.709,8.207,3.591c1.96,0.633,3.958,1.158,5.967,1.638c-0.126,0.05-0.25,0.108-0.376,0.156
					c0.424,0.021,0.849,0.04,1.273,0.057c8.826,2.013,18.028,2.743,26.992,3.142c0.014,0,0.029,0,0.045,0
					c24.301,4.483,47.784,12.982,70.539,22.679c31.035,13.228,60.752,29.183,91.174,43.712
					c62.363,29.784,129.08,48.783,198.13,53.868c68.808,5.068,139.032-3.544,203.762-27.804
					c70.84-26.549,132.504-72.557,186.454-124.897c25.683-24.916,49.598-51.704,70.91-80.464
					c18.081-24.401,33.864-50.433,47.93-77.34c-0.063-0.608-0.015-1.275,0.331-2.052c5.141-11.541,10.535-22.945,15.973-34.348
					c2.171-4.551,5.249-9.79,4.6-15.029C2798.636,498.088,2793.917,493.96,2789.715,490.852z"/>
				<path style="fill:#CBC19B;" d="M2239.793,861.013c-29.949-16.416-58.221-35.912-84.178-58.11
					c-25.872-22.126-49.355-46.976-69.86-74.154c-0.575-0.762-0.178-2.203,0.681-2.599c13.75-6.315,26.791-14.079,39.035-22.96
					c22.444-16.278,42.173-36.203,59.339-57.922c1.45-1.834,2.856-3.703,4.27-5.565c-17.979,12.529-36.715,23.988-56.288,33.844
					c-22.935,11.548-47.016,21.037-71.965,27.219c-22.102,5.477-44.686,7.883-67.434,8.015c-9.178,0.054-18.422-0.341-27.465-2.003
					c-7.708-1.418-15.571-3.863-21.892-8.648c-6.143-4.653-10.055-11.319-11.158-18.948c-1.349-9.327,0.946-18.865,3.591-27.771
					c6.111-20.583,16.325-39.961,27.856-57.996c-8.336,4.168-16.843,7.993-25.577,11.306c-15.802,5.994-32.402,10.235-49.321,11.204
					c-15.23,0.87-29.827-1.907-43.698-7.933c-5.59-1.517-11.373-2.702-16.915-3.889c-7.784-1.669-18.068-3.113-23.548,4.221
					c-7.511,10.051-3.161,27.789-0.309,38.698c3.768,14.41,10.276,28.042,18.117,40.663c7.959,12.814,17.278,24.74,27.175,36.105
					c4.341,4.986,9.036,10.894,15.737,12.632c0.464,0.12,0.946,0.184,1.421,0.27c2.582,1.535,5.466,2.709,8.207,3.591
					c1.96,0.633,3.958,1.158,5.967,1.638c-0.126,0.05-0.25,0.108-0.376,0.156c0.424,0.021,0.849,0.04,1.273,0.057
					c8.826,2.013,18.028,2.743,26.992,3.142h0.045c24.301,4.483,47.784,12.982,70.539,22.679
					c31.035,13.228,60.752,29.183,91.174,43.712c54.534,26.046,112.397,43.841,172.237,51.3
					C2242.245,862.309,2241.009,861.68,2239.793,861.013z"/>
				<path style="fill:#E6AC9C;" d="M2633.193,433.416c-34.646-9.724-69.666-15.427-105.667-16.642
					c-18.427-0.621-36.895-0.217-55.275,1.237c-16.315,1.292-32.814,3.031-48.707,7.073
					c-56.88,14.468-100.758,56.199-137.753,99.684c-18.986,22.317-36.683,45.679-54.975,68.558
					c-17.756,22.207-36.157,44.068-55.459,64.95c-21.865,23.657-47.808,48.556-77.295,64.678
					c7.436,9.791,14.557,19.835,22.953,28.846c12.338,13.24,27.646,22.376,43.219,31.328
					c32.444,18.649,67.464,32.667,103.849,41.472c37.003,8.954,75.255,12.264,113.259,10.26c31.26-1.649,61.787-7.057,91.351-17.417
					c54.263-19.014,103.104-51.883,144.445-91.521c42.48-40.73,77.759-89.138,103.691-141.96
					c14.881-30.311,26.748-62.388,34.356-95.386c-11.567-7.762-23.653-14.771-35.922-21.134
					C2691.863,453.232,2662.916,441.758,2633.193,433.416z"/>
				<path style="opacity:0.5;fill:#E6AC9C;" d="M2506.501,791.242c-37.43,11.872-76.684,18.969-115.896,21.152
					c-35.161,1.959-71.133,0.4-105.575-7.3c-30.477-6.813-64.422-19.608-81.295-47.743c-0.772-1.286,0.235-2.79,1.64-2.857
					c26.365-1.273,52.183-8.052,76.539-18.037c46.893-19.223,88.911-49.936,125.269-84.917
					c33.955-32.671,64.164-70.15,86.551-111.734c-16.936-2.488-34.13,2.182-50.109,7.486c-2.366,0.785-3.227-2.784-1.01-3.663
					c14.95-5.937,30.596-9.934,45.87-14.923c14.176-4.629,29.05-9.862,41.001-19.084c-11.863-10.572-28.033-13.93-43.559-14.605
					c-16.109-0.702-32.123,1.27-48.17,2.292c-1.937,0.123-2.51-2.623-0.958-3.539c22.126-13.073,45.85-23.395,70.331-31.177
					c45.477-14.456,94.104-20.496,141.686-16.126c13.124,1.206,26.191,3.269,39.051,6.185
					c-17.796-7.571-36.083-14.015-54.674-19.232c-34.646-9.724-69.666-15.427-105.667-16.642
					c-18.427-0.621-36.895-0.217-55.275,1.237c-16.315,1.292-32.814,3.031-48.707,7.073
					c-56.88,14.468-100.758,56.199-137.753,99.684c-18.986,22.317-36.683,45.679-54.975,68.558
					c-17.756,22.207-36.157,44.068-55.459,64.95c-21.865,23.657-47.808,48.556-77.295,64.678
					c7.436,9.791,14.557,19.835,22.953,28.846c12.338,13.24,27.646,22.376,43.219,31.328
					c32.444,18.649,67.464,32.667,103.849,41.472c37.003,8.954,75.255,12.264,113.259,10.26c31.26-1.649,61.787-7.057,91.351-17.417
					c35.353-12.387,68.386-30.683,98.562-52.874C2550.454,775.209,2528.794,784.171,2506.501,791.242z"/>
				<path style="opacity:0.5;fill:#E6AC9C;" d="M2171.152,786.943c2.476-10.109,5.354-20.132,8.659-30.03
					c16.209-48.543,41.104-93.708,68.814-136.551c13.955-21.575,28.663-42.728,44.199-63.196
					c15.518-20.446,32.034-40.202,50.329-58.232c17.849-17.593,37.447-33.603,59.087-46.326
					c23.18-13.628,48.866-23.129,74.753-30.157c8.09-2.196,16.236-4.115,24.416-5.85c-9.731,0.186-19.457,0.643-29.158,1.41
					c-16.315,1.292-32.814,3.031-48.707,7.073c-56.88,14.468-100.758,56.199-137.753,99.684
					c-18.986,22.317-36.683,45.679-54.975,68.558c-17.756,22.207-36.157,44.068-55.459,64.95
					c-21.865,23.657-47.808,48.556-77.295,64.678c7.436,9.791,14.557,19.835,22.953,28.846
					c12.338,13.24,27.646,22.376,43.219,31.328C2166.519,784.44,2168.844,785.677,2171.152,786.943z"/>
				<path style="fill:#5C3D28;" d="M2648.186,438.711c-52.734-15.666-106.875-31.161-162.443-29.313
					c-56.037,1.864-107.826,30.048-150.011,65.311c-44.463,37.167-79.924,83.262-116.281,128.01
					c-35.157,43.272-72.477,91.741-125.889,112.956c-29.554,11.739-61.885,14.708-93.428,12.834
					c-16.023-0.952-31.989-2.79-47.864-5.139c-15.907-2.352-31.721-4.805-47.328-8.687c-0.921-0.229-1.656,1.569-0.626,1.862
					c13.654,3.888,27.127,8.363,40.94,11.644c13.864,3.292,27.862,5.882,42.037,7.397c27.357,2.924,55.713,2.126,82.53-4.287
					c5.966-1.427,11.794-3.197,17.516-5.203c19.04,22.927,42.824,41.809,67.957,57.671c25.377,16.017,53,28.551,81.562,37.699
					c63.069,20.198,131.057,22.302,195.62,8.081c37.733-8.311,74.666-21.468,107.748-41.598c1.703-1.036,1.548-5.089-0.97-3.926
					c-30.954,14.291-62.704,27.104-95.901,35.157c-32.943,7.99-67.023,11.949-100.929,11.252
					c-60.484-1.243-120.331-17.662-172.742-47.936c-28.088-16.224-52.964-36.397-76.482-58.588
					c17.795-6.943,34.356-16.599,49.462-28.678c21.944-17.546,40.814-38.645,58.964-59.986
					c72.51-85.26,141.907-192.879,260.188-215.523c63.063-12.074,125.24,3.595,185.719,20.931
					C2648.481,440.924,2649.259,439.029,2648.186,438.711z"/>
			</g>
			<path style="fill:#3D4341;" d="M2202.237,47.358c-4.175-6.873-9.236-13.264-15.104-18.764c-1.747-1.637-4.73,0.264-5.554,1.961
				c-38.64,79.52-77.057,162.349-143.097,223.34c-31.844,29.41-68.677,50.99-109.729,64.856
				c-43.126,14.567-88.454,20.611-133.604,24.825c-28.062,2.62-56.2,4.436-84.363,5.503c-22.059,0.835-44.068,2.003-66.123,2.347
				c-0.114-0.229-0.186-0.471-0.378-0.672c-9.682-10.13-26.181-1.184-30.782,9.716c-3.413,8.087-2.304,17.162-0.011,25.385
				c2.592,9.294,6.139,18.393,9.498,27.432c13.771,37.069,30.453,73.198,51.688,106.616c10.17,16.005,21.112,32.169,34.119,46.035
				c5.846,6.234,12.536,11.808,20.353,15.389c8.429,3.86,17.917,4.949,27.099,4.995c40.053,0.205,80.946-7.364,119.548-17.512
				c39.095-10.277,77.055-25.17,113.302-42.99c35.858-17.629,71.117-38.066,102.494-62.913
				c29.604-23.444,54.586-51.807,73.795-84.336c19.024-32.212,32.339-67.453,40.715-103.865
				c9.387-40.81,13.674-82.831,14.114-124.67C2220.578,115.828,2220.6,77.583,2202.237,47.358z"/>
			<path style="fill:#9EA7A2;" d="M2212.692,124.035c1.558,38.747,0.516,77.965-5.874,116.271
				c-11.682,70.04-40.883,139.448-91.123,190.614c-26.385,26.87-58.247,47.911-90.803,66.512
				c-33.108,18.918-67.654,35.371-103.469,48.491c-35.906,13.154-73.076,23.107-110.922,28.706
				c-18.699,2.767-38.177,5.447-57.116,4.748c-9.17-0.339-18.131-2.318-25.957-7.276c-7.284-4.615-13.338-10.94-18.842-17.511
				c-23.771-28.372-42.547-61.135-58.144-94.588c-7.846-16.826-14.873-34.028-21.274-51.452c-3.14-8.548-6.449-17.16-8.85-25.951
				c-2.12-7.753-4.259-18.894,2.285-25.193c4.59-4.418,12.034-5.822,16.721-0.918c1.797,1.882,4.736-0.325,5.48-2.762
				c19.255,0.698,38.559,1.396,57.774,0.916c24.905-0.624,49.79-1.83,74.638-3.627c46.573-3.368,93.515-8.159,138.67-20.569
				c42.382-11.648,81.503-31.645,115.238-59.879c32.578-27.267,59.63-60.483,82.706-96.016
				c28.042-43.175,50.069-89.919,71.269-136.741C2207.278,59.852,2211.488,94.098,2212.692,124.035z"/>
			<path style="fill:#9EA7A2;" d="M1659.233,355.365c54.723,10.264,110.347,17.274,166.117,16.279
				c55.093-0.983,110.189-10.232,161.243-31.431c25.386-10.541,49.801-23.755,71.6-40.562c20.526-15.827,38.851-34.567,54.294-55.38
				c16.141-21.752,28.649-45.575,39.018-70.546c11.384-27.414,20.343-55.905,25.248-85.217c1.974-11.801,3.559-23.704,5.197-35.559
				c0.527-3.809,1.01-7.624,1.465-11.445c-20.688,45.584-42.282,91.007-69.585,133.046c-23.077,35.533-50.128,68.75-82.706,96.016
				c-33.735,28.234-72.856,48.231-115.238,59.879c-45.155,12.41-92.097,17.2-138.67,20.57c-24.848,1.797-49.733,3.003-74.638,3.627
				c-16.776,0.419-33.617-0.066-50.435-0.658C1654.507,354.44,1656.866,354.921,1659.233,355.365z"/>
			<path style="fill:#9EA7A2;" d="M2209.637,153.526c-8.157,28.556-19.86,56.094-34.257,82.055
				c-14.513,26.17-31.817,50.793-51.374,73.436c-19.352,22.407-40.972,42.85-64.55,60.766c-22.942,17.43-47.81,32.435-74.255,43.919
				c-28.787,12.501-60.133,22.167-91.851,19.326c-30.698-2.75-58.184-17.123-83.955-33.117
				c-25.658-15.925-49.9-34.597-77.845-46.286c-9.653,0.418-19.31,0.775-28.971,1.017c-19.215,0.48-38.52-0.217-57.774-0.916
				c-0.744,2.436-3.683,4.644-5.48,2.762c-4.687-4.904-12.131-3.5-16.721,0.919c-6.544,6.297-4.405,17.439-2.285,25.192
				c2.401,8.79,5.71,17.402,8.85,25.95c6.402,17.425,13.428,34.627,21.274,51.453c15.597,33.451,34.374,66.216,58.144,94.588
				c5.504,6.569,11.558,12.894,18.842,17.509c7.826,4.959,16.787,6.938,25.957,7.276c18.94,0.699,38.417-1.98,57.116-4.746
				c37.845-5.6,75.015-15.553,110.922-28.707c35.816-13.121,70.361-29.574,103.469-48.491
				c32.556-18.601,64.419-39.642,90.803-66.512c50.24-51.166,79.44-120.574,91.123-190.615c5.511-33.039,7.031-66.756,6.349-100.265
				C2212.069,144.556,2210.913,149.059,2209.637,153.526z"/>
			<path style="fill:#9EA7A2;" d="M2165.416,335.181c-16.646,24.387-35.801,47.059-56.984,67.625
				c-21.477,20.851-45.041,39.561-70.151,55.851c-12.832,8.324-26.073,16.016-39.658,23.045
				c-12.793,6.62-25.982,12.411-38.929,18.715c-13.367,6.509-26.91,12.845-41.097,17.379c-13.283,4.245-27.973,7.318-41.848,4.275
				c-14.161-3.105-23.317-13.748-29.878-26.042c-3.311-6.205-6.098-12.672-9.396-18.883c-3.854-7.257-7.958-14.413-12.299-21.391
				c-8.837-14.207-18.941-27.622-30.723-39.527c-12.189-12.315-26.304-21.872-40.067-32.269
				c-12.934-9.77-25.756-20.112-39.028-29.764c-4.261,0.147-8.52,0.342-12.782,0.448c-19.215,0.48-38.52-0.217-57.774-0.916
				c-0.744,2.436-3.683,4.644-5.48,2.762c-4.687-4.904-12.131-3.5-16.721,0.919c-6.544,6.297-4.405,17.439-2.285,25.192
				c2.401,8.79,5.71,17.402,8.85,25.95c6.402,17.425,13.428,34.627,21.274,51.453c15.597,33.451,34.374,66.216,58.144,94.588
				c5.504,6.569,11.558,12.894,18.842,17.509c7.826,4.959,16.787,6.938,25.957,7.276c18.94,0.699,38.417-1.98,57.116-4.746
				c37.845-5.6,75.015-15.553,110.922-28.707c35.816-13.121,70.361-29.574,103.469-48.491
				c32.556-18.601,64.419-39.642,90.803-66.512c41.859-42.632,69.066-97.934,83.751-155.708
				C2189.777,296.093,2178.394,316.169,2165.416,335.181z"/>
			<g>
				<path style="fill:#5C3D28;" d="M49.447,523.182c2.736,5.807,5.489,11.6,8.276,17.377c-0.193,0.712-0.199,1.541,0.221,2.53
					c3.493,8.23,7.021,16.512,11.166,24.439c33.513,64.095,80.743,120.412,134.068,168.942
					c56.014,50.976,118.976,94.107,191.561,117.47c66.101,21.276,136.559,27.302,205.502,19.922
					c34.941-3.74,69.51-10.937,103.053-21.404c32.767-10.224,64.031-24.03,94.701-39.345c30.489-15.224,60.525-31.607,92.046-44.646
					c15.664-6.479,31.65-11.78,48.045-16.065c16.323-4.267,33.153-7.571,50.064-7.578c0.997,0,1.307-0.803,1.167-1.605
					c8.111-3.235,13.784-11.028,19.184-17.52c22.15-26.63,41.906-57.817,45.738-92.994c1.367-12.542,0.032-28.741-13.052-34.812
					c-12.428-5.768-25.78,0.426-37.235,6.746c-17.634,5.8-37.45,5.477-55.551,2.341c-18.799-3.256-36.897-9.993-54.068-18.188
					c-58.283-27.81-105.085-73.953-151.829-117.397c-46.598-43.307-95.819-87.287-156.618-109.228
					c-4.024-1.452-5.959,3.385-3.812,6.4c7.214,10.128,13.322,20.883,18.287,32.179c-20.328-22.415-45.795-39.857-74.415-50.268
					c-5.414-1.97-4.704,5.385-1.9,7.696c9.686,7.986,17.63,17.753,23.523,28.718c-33.108-23.659-73.97-33.36-114.48-34.389
					c-41.14-1.044-81.959,5.846-121.813,15.513c-39.523,9.587-78.281,22.348-115.808,38.019
					c-37.477,15.65-73.721,34.262-108.256,55.635c-8.519,5.272-16.933,10.713-25.237,16.318
					c-7.246,4.891-15.758,10.203-18.417,19.083C40.815,506.226,45.65,515.121,49.447,523.182z"/>
				<path style="fill:#A56D4B;" d="M50.79,503.6c0.683-5.512,5.402-9.64,9.604-12.748c17.263-12.774,36.124-23.855,54.752-34.494
					c67.211-38.386,140.197-66.538,215.815-83.072c73.737-16.122,162.958-23.32,224.472,29.241c3.122,2.667,6.251-1.05,5.066-4.276
					c-4.386-11.932-10.745-22.859-18.771-32.486c26.394,12.699,49.466,31.799,66.486,55.833c2.74,3.869,8.211,2.918,6.634-2.418
					c-4.545-15.363-11.036-30.058-19.274-43.757c30.184,12.725,57.727,30.472,83.438,50.827
					c51.719,40.944,96.048,90.421,148.586,130.394c25.684,19.54,53.505,36.599,83.763,48.077
					c15.802,5.994,32.402,10.235,49.321,11.204c15.229,0.87,29.827-1.906,43.698-7.933c5.59-1.516,11.373-2.702,16.915-3.889
					c7.784-1.668,18.068-3.113,23.548,4.221c7.511,10.051,3.161,27.789,0.309,38.698c-3.768,14.41-10.276,28.042-18.116,40.663
					c-7.959,12.814-17.278,24.739-27.175,36.105c-4.341,4.986-9.036,10.894-15.737,12.631c-0.464,0.121-0.946,0.185-1.42,0.27
					c-2.582,1.534-5.466,2.709-8.207,3.592c-1.961,0.631-3.958,1.157-5.967,1.638c0.126,0.049,0.25,0.107,0.377,0.155
					c-0.424,0.021-0.849,0.04-1.273,0.057c-8.826,2.013-18.028,2.743-26.992,3.142c-0.014,0.001-0.029,0-0.045,0.001
					c-24.301,4.482-47.784,12.981-70.539,22.679c-31.035,13.226-60.752,29.182-91.174,43.71
					c-62.364,29.786-129.08,48.783-198.13,53.869c-68.808,5.068-139.032-3.544-203.762-27.803
					c-70.84-26.55-132.505-72.558-186.454-124.898c-25.683-24.917-49.598-51.705-70.91-80.464
					c-18.081-24.401-33.864-50.433-47.93-77.34c0.063-0.608,0.015-1.274-0.331-2.05c-5.141-11.542-10.535-22.945-15.973-34.349
					C53.219,514.077,50.141,508.839,50.79,503.6z"/>
				<path style="fill:#CBC19B;" d="M60.394,490.852c17.263-12.774,36.124-23.855,54.752-34.494
					c51.41-29.362,106.206-52.712,162.967-69.478c33.394-4.019,67.27-3.58,100.406,2.555
					c61.444,11.374,115.957,44.225,165.079,81.611c52.587,40.022,100.017,86.333,152.501,126.471
					c24.833,18.992,49.877,38.118,77.523,52.896c26.789,14.32,56.658,24.599,87.409,22.074c1.676-0.138,2.455-1.951,1.343-3.242
					c-25.133-29.171-49.675-58.846-73.593-89.02c-20.592-25.98-40.885-52.237-60.284-79.122
					c-14.811-20.525-30.33-40.577-47.144-59.509c-15.395-17.334-31.916-33.852-50.141-48.229
					c16.682,9.725,32.572,20.829,47.801,32.885c51.719,40.944,96.048,90.421,148.586,130.394
					c25.684,19.541,53.505,36.599,83.763,48.077c15.802,5.994,32.402,10.235,49.321,11.204c15.23,0.87,29.827-1.907,43.698-7.933
					c5.59-1.517,11.373-2.702,16.915-3.889c7.784-1.669,18.068-3.113,23.548,4.221c7.511,10.051,3.161,27.789,0.309,38.698
					c-3.768,14.41-10.276,28.042-18.116,40.663c-7.959,12.814-17.278,24.74-27.175,36.105c-4.341,4.986-9.036,10.894-15.737,12.632
					c-0.464,0.12-0.946,0.184-1.42,0.27c-2.582,1.535-5.466,2.709-8.207,3.591c-1.961,0.633-3.958,1.158-5.967,1.638
					c0.126,0.05,0.25,0.108,0.377,0.156c-0.424,0.021-0.849,0.04-1.273,0.057c-8.826,2.013-18.028,2.743-26.992,3.142
					c-0.014,0-0.029,0-0.045,0c-24.301,4.483-47.784,12.982-70.539,22.679c-31.035,13.228-60.752,29.183-91.174,43.712
					c-62.364,29.784-129.08,48.783-198.13,53.868c-68.808,5.068-139.032-3.544-203.762-27.804
					c-70.84-26.549-132.505-72.557-186.454-124.897c-25.683-24.916-49.598-51.704-70.91-80.464
					c-18.081-24.401-33.864-50.433-47.93-77.34c0.063-0.608,0.015-1.275-0.331-2.052c-5.141-11.541-10.535-22.945-15.973-34.348
					c-2.171-4.551-5.249-9.79-4.6-15.029C51.473,498.088,56.192,493.96,60.394,490.852z"/>
				<path style="fill:#CBC19B;" d="M610.316,861.013c29.95-16.416,58.221-35.912,84.178-58.11
					c25.873-22.126,49.356-46.976,69.861-74.154c0.575-0.762,0.178-2.203-0.681-2.599c-13.75-6.315-26.791-14.079-39.035-22.96
					c-22.444-16.278-42.173-36.203-59.34-57.922c-1.45-1.834-2.856-3.703-4.269-5.565c17.978,12.529,36.715,23.988,56.288,33.844
					c22.935,11.548,47.016,21.037,71.965,27.219c22.102,5.477,44.686,7.883,67.433,8.015c9.178,0.054,18.423-0.341,27.466-2.003
					c7.708-1.418,15.571-3.863,21.892-8.648c6.143-4.653,10.055-11.319,11.158-18.948c1.349-9.327-0.947-18.865-3.591-27.771
					c-6.111-20.583-16.325-39.961-27.856-57.996c8.336,4.168,16.843,7.993,25.577,11.306c15.802,5.994,32.402,10.235,49.321,11.204
					c15.23,0.87,29.827-1.907,43.698-7.933c5.59-1.517,11.373-2.702,16.915-3.889c7.784-1.669,18.068-3.113,23.548,4.221
					c7.511,10.051,3.161,27.789,0.309,38.698c-3.768,14.41-10.276,28.042-18.116,40.663c-7.959,12.814-17.278,24.74-27.175,36.105
					c-4.341,4.986-9.036,10.894-15.737,12.632c-0.464,0.12-0.946,0.184-1.42,0.27c-2.582,1.535-5.466,2.709-8.207,3.591
					c-1.961,0.633-3.958,1.158-5.967,1.638c0.126,0.05,0.25,0.108,0.377,0.156c-0.424,0.021-0.849,0.04-1.273,0.057
					c-8.826,2.013-18.028,2.743-26.992,3.142h-0.045c-24.301,4.483-47.784,12.982-70.539,22.679
					c-31.035,13.228-60.752,29.183-91.174,43.712c-54.534,26.046-112.397,43.841-172.237,51.3
					C607.864,862.309,609.1,861.68,610.316,861.013z"/>
				<path style="fill:#E6AC9C;" d="M216.916,433.416c34.647-9.724,69.666-15.427,105.668-16.642
					c18.427-0.621,36.895-0.217,55.275,1.237c16.315,1.292,32.814,3.031,48.707,7.073c56.88,14.468,100.758,56.199,137.753,99.684
					c18.986,22.317,36.683,45.679,54.975,68.558c17.756,22.207,36.157,44.068,55.459,64.95
					c21.865,23.657,47.808,48.556,77.295,64.678c-7.435,9.791-14.557,19.835-22.953,28.846
					c-12.339,13.24-27.646,22.376-43.219,31.328c-32.444,18.649-67.464,32.667-103.849,41.472
					c-37.004,8.954-75.255,12.264-113.259,10.26c-31.26-1.649-61.788-7.057-91.352-17.417
					c-54.262-19.014-103.104-51.883-144.445-91.521c-42.48-40.73-77.759-89.138-103.691-141.96
					c-14.881-30.311-26.748-62.388-34.356-95.386c11.567-7.762,23.653-14.771,35.922-21.134
					C158.246,453.232,187.193,441.758,216.916,433.416z"/>
				<path style="opacity:0.5;fill:#E6AC9C;" d="M343.608,791.242c37.43,11.872,76.684,18.969,115.896,21.152
					c35.161,1.959,71.133,0.4,105.575-7.3c30.477-6.813,64.422-19.608,81.296-47.743c0.772-1.286-0.235-2.79-1.64-2.857
					c-26.365-1.273-52.183-8.052-76.539-18.037c-46.893-19.223-88.911-49.936-125.269-84.917
					c-33.955-32.671-64.164-70.15-86.551-111.734c16.937-2.488,34.13,2.182,50.109,7.486c2.366,0.785,3.227-2.784,1.01-3.663
					c-14.95-5.937-30.596-9.934-45.87-14.923c-14.176-4.629-29.05-9.862-41.001-19.084c11.862-10.572,28.034-13.93,43.559-14.605
					c16.109-0.702,32.123,1.27,48.171,2.292c1.936,0.123,2.51-2.623,0.958-3.539c-22.126-13.073-45.85-23.395-70.331-31.177
					c-45.477-14.456-94.104-20.496-141.686-16.126c-13.124,1.206-26.191,3.269-39.052,6.185
					c17.796-7.571,36.083-14.015,54.675-19.232c34.647-9.724,69.666-15.427,105.668-16.642c18.427-0.621,36.895-0.217,55.275,1.237
					c16.315,1.292,32.814,3.031,48.707,7.073c56.88,14.468,100.758,56.199,137.753,99.684
					c18.986,22.317,36.683,45.679,54.975,68.558c17.756,22.207,36.157,44.068,55.459,64.95
					c21.865,23.657,47.808,48.556,77.295,64.678c-7.435,9.791-14.557,19.835-22.953,28.846
					c-12.339,13.24-27.646,22.376-43.219,31.328c-32.444,18.649-67.464,32.667-103.849,41.472
					c-37.004,8.954-75.255,12.264-113.259,10.26c-31.26-1.649-61.788-7.057-91.352-17.417
					c-35.353-12.387-68.385-30.683-98.562-52.874C299.655,775.209,321.315,784.171,343.608,791.242z"/>
				<path style="opacity:0.5;fill:#E6AC9C;" d="M678.957,786.943c-2.476-10.109-5.354-20.132-8.66-30.03
					c-16.208-48.543-41.103-93.708-68.813-136.551c-13.955-21.575-28.662-42.728-44.199-63.196
					c-15.519-20.446-32.034-40.202-50.329-58.232c-17.85-17.593-37.447-33.603-59.087-46.326
					c-23.18-13.628-48.866-23.129-74.753-30.157c-8.09-2.196-16.236-4.115-24.416-5.85c9.731,0.186,19.457,0.643,29.158,1.41
					c16.315,1.292,32.814,3.031,48.707,7.073c56.88,14.468,100.758,56.199,137.753,99.684
					c18.986,22.317,36.683,45.679,54.975,68.558c17.756,22.207,36.157,44.068,55.459,64.95
					c21.865,23.657,47.808,48.556,77.295,64.678c-7.435,9.791-14.557,19.835-22.953,28.846
					c-12.339,13.24-27.646,22.376-43.219,31.328C683.591,784.44,681.266,785.677,678.957,786.943z"/>
				<path style="fill:#5C3D28;" d="M201.923,438.711c52.734-15.666,106.875-31.161,162.443-29.313
					c56.037,1.864,107.826,30.048,150.011,65.311c44.463,37.167,79.924,83.262,116.281,128.01
					c35.157,43.272,72.477,91.741,125.889,112.956c29.554,11.739,61.885,14.708,93.428,12.834
					c16.023-0.952,31.988-2.79,47.863-5.139c15.908-2.352,31.722-4.805,47.329-8.687c0.921-0.229,1.656,1.569,0.626,1.862
					c-13.654,3.888-27.127,8.363-40.94,11.644c-13.864,3.292-27.862,5.882-42.037,7.397c-27.357,2.924-55.713,2.126-82.53-4.287
					c-5.966-1.427-11.794-3.197-17.515-5.203c-19.04,22.927-42.825,41.809-67.956,57.671c-25.377,16.017-53,28.551-81.562,37.699
					c-63.069,20.198-131.057,22.302-195.62,8.081c-37.733-8.311-74.665-21.468-107.748-41.598c-1.703-1.036-1.548-5.089,0.97-3.926
					c30.954,14.291,62.704,27.104,95.901,35.157c32.943,7.99,67.023,11.949,100.928,11.252
					c60.484-1.243,120.331-17.662,172.743-47.936c28.088-16.224,52.964-36.397,76.482-58.588
					c-17.795-6.943-34.357-16.599-49.464-28.678c-21.943-17.546-40.813-38.645-58.963-59.986
					c-72.511-85.26-141.907-192.879-260.188-215.523c-63.064-12.074-125.241,3.595-185.719,20.931
					C201.628,440.924,200.851,439.029,201.923,438.711z"/>
			</g>
			<path style="fill:#3D4341;" d="M629.891,150.035c0.441,41.839,4.727,83.859,14.114,124.67
				c8.376,36.412,21.691,71.653,40.715,103.865c19.209,32.529,44.191,60.892,73.795,84.336
				c31.377,24.847,66.635,45.284,102.493,62.913c36.249,17.82,74.208,32.713,113.302,42.99
				c38.603,10.148,79.496,17.717,119.549,17.512c9.182-0.046,18.67-1.135,27.099-4.995c7.818-3.58,14.507-9.155,20.353-15.389
				c13.006-13.866,23.948-30.031,34.119-46.035c21.235-33.419,37.917-69.547,51.688-106.616c3.359-9.039,6.906-18.138,9.498-27.432
				c2.293-8.223,3.401-17.298-0.011-25.385c-4.601-10.9-21.1-19.846-30.782-9.716c-0.193,0.201-0.264,0.443-0.378,0.672
				c-22.055-0.344-44.064-1.512-66.123-2.347c-28.164-1.067-56.302-2.883-84.364-5.503c-45.149-4.214-90.477-10.258-133.603-24.825
				c-41.052-13.866-77.885-35.447-109.729-64.856c-66.04-60.991-104.457-143.82-143.097-223.34
				c-0.824-1.696-3.807-3.597-5.555-1.961c-5.868,5.501-10.928,11.891-15.104,18.764
				C629.509,77.583,629.531,115.828,629.891,150.035z"/>
			<path style="fill:#9EA7A2;" d="M665.009,37.809c21.2,46.823,43.228,93.567,71.269,136.741
				c23.077,35.533,50.128,68.749,82.707,96.016c33.735,28.235,72.856,48.231,115.238,59.879
				c45.154,12.41,92.097,17.201,138.669,20.569c24.849,1.798,49.734,3.004,74.639,3.627c19.215,0.481,38.52-0.217,57.774-0.916
				c0.744,2.437,3.682,4.644,5.48,2.762c4.687-4.904,12.131-3.5,16.721,0.918c6.543,6.299,4.404,17.44,2.285,25.193
				c-2.402,8.791-5.71,17.403-8.851,25.951c-6.401,17.424-13.427,34.626-21.273,51.452c-15.597,33.452-34.374,66.216-58.144,94.588
				c-5.504,6.57-11.558,12.896-18.842,17.511c-7.826,4.958-16.787,6.938-25.958,7.276c-18.939,0.699-38.416-1.981-57.115-4.748
				c-37.845-5.599-75.015-15.552-110.922-28.706c-35.815-13.121-70.361-29.574-103.469-48.491
				c-32.556-18.601-64.419-39.642-90.804-66.512c-50.24-51.166-79.44-120.574-91.123-190.614
				c-6.39-38.306-7.432-77.524-5.874-116.271C638.621,94.098,642.831,59.852,665.009,37.809z"/>
			<path style="fill:#9EA7A2;" d="M1190.876,355.365c-54.723,10.264-110.347,17.274-166.117,16.279
				c-55.093-0.983-110.189-10.232-161.243-31.431c-25.386-10.541-49.801-23.755-71.6-40.562
				c-20.526-15.827-38.851-34.567-54.294-55.38c-16.142-21.752-28.65-45.575-39.019-70.546
				c-11.384-27.414-20.344-55.905-25.248-85.217c-1.974-11.801-3.559-23.704-5.198-35.559c-0.526-3.809-1.009-7.624-1.464-11.445
				c20.688,45.584,42.282,91.007,69.585,133.046c23.077,35.533,50.128,68.75,82.707,96.016
				c33.735,28.234,72.856,48.231,115.238,59.879c45.155,12.41,92.097,17.2,138.67,20.57c24.848,1.797,49.733,3.003,74.638,3.627
				c16.776,0.419,33.617-0.066,50.435-0.658C1195.602,354.44,1193.242,354.921,1190.876,355.365z"/>
			<path style="fill:#9EA7A2;" d="M640.472,153.526c8.157,28.556,19.86,56.094,34.257,82.055
				c14.513,26.17,31.817,50.793,51.373,73.436c19.352,22.407,40.972,42.85,64.55,60.766c22.942,17.43,47.81,32.435,74.256,43.919
				c28.787,12.501,60.133,22.167,91.851,19.326c30.698-2.75,58.183-17.123,83.954-33.117c25.659-15.925,49.901-34.597,77.846-46.286
				c9.654,0.418,19.31,0.775,28.971,1.017c19.215,0.48,38.52-0.217,57.774-0.916c0.744,2.436,3.683,4.644,5.48,2.762
				c4.687-4.904,12.131-3.5,16.721,0.919c6.543,6.297,4.404,17.439,2.285,25.192c-2.401,8.79-5.71,17.402-8.851,25.95
				c-6.401,17.425-13.427,34.627-21.273,51.453c-15.597,33.451-34.374,66.216-58.144,94.588
				c-5.504,6.569-11.558,12.894-18.842,17.509c-7.826,4.959-16.787,6.938-25.957,7.276c-18.94,0.699-38.417-1.98-57.116-4.746
				c-37.845-5.6-75.015-15.553-110.922-28.707c-35.815-13.121-70.361-29.574-103.469-48.491
				c-32.556-18.601-64.419-39.642-90.804-66.512c-50.24-51.166-79.44-120.574-91.123-190.615
				c-5.511-33.039-7.031-66.756-6.349-100.265C638.04,144.556,639.196,149.059,640.472,153.526z"/>
			<path style="fill:#9EA7A2;" d="M684.693,335.181c16.646,24.387,35.801,47.059,56.984,67.625
				c21.477,20.851,45.041,39.561,70.151,55.851c12.832,8.324,26.073,16.016,39.658,23.045c12.792,6.62,25.982,12.411,38.929,18.715
				c13.367,6.509,26.91,12.845,41.097,17.379c13.283,4.245,27.973,7.318,41.847,4.275c14.161-3.105,23.317-13.748,29.878-26.042
				c3.311-6.205,6.098-12.672,9.396-18.883c3.854-7.257,7.958-14.413,12.299-21.391c8.837-14.207,18.941-27.622,30.723-39.527
				c12.189-12.315,26.304-21.872,40.067-32.269c12.934-9.77,25.756-20.112,39.028-29.764c4.26,0.147,8.52,0.342,12.782,0.448
				c19.215,0.48,38.52-0.217,57.774-0.916c0.744,2.436,3.683,4.644,5.48,2.762c4.687-4.904,12.131-3.5,16.721,0.919
				c6.543,6.297,4.404,17.439,2.285,25.192c-2.401,8.79-5.71,17.402-8.851,25.95c-6.401,17.425-13.427,34.627-21.273,51.453
				c-15.597,33.451-34.374,66.216-58.144,94.588c-5.504,6.569-11.558,12.894-18.842,17.509c-7.826,4.959-16.787,6.938-25.957,7.276
				c-18.94,0.699-38.417-1.98-57.116-4.746c-37.845-5.6-75.015-15.553-110.922-28.707c-35.815-13.121-70.361-29.574-103.469-48.491
				c-32.556-18.601-64.419-39.642-90.804-66.512c-41.859-42.632-69.066-97.934-83.751-155.708
				C660.332,296.093,671.716,316.169,684.693,335.181z"/>
			<path style="fill:#5C3D28;" d="M2067.363,1330.892c-5.63-51.263-18.521-101.947-39.487-149.119
				c-11.106-24.99-24.507-49.14-40.122-71.663c-28.473-69.404-57.291-138.567-79.752-210.273
				c-12.506-39.921-22.964-80.509-30.395-121.692c-7.437-41.208-10.633-82.778-14.343-124.433
				c-3.578-40.185-8.341-80.564-20.653-119.149c-10.9-34.164-28.345-65.776-51.1-93.467
				c-44.548-54.207-106.342-92.462-172.577-114.349c-39.197-12.953-79.957-20.719-121.033-24.447
				c-20.732-1.882-41.475-2.748-62.289-2.716c-6.601,0.01-13.176,0.293-19.739,0.683c-6.563-0.39-13.136-0.673-19.737-0.683
				c-20.815-0.032-41.557,0.834-62.29,2.716c-41.075,3.728-81.835,11.494-121.033,24.447
				c-66.234,21.888-128.028,60.143-172.576,114.349c-22.757,27.691-40.2,59.303-51.101,93.467
				c-12.312,38.585-17.074,78.964-20.653,119.149c-3.71,41.656-6.906,83.226-14.342,124.433
				c-7.431,41.183-17.889,81.77-30.394,121.692c-22.463,71.706-51.279,140.869-79.752,210.273
				c-15.616,22.523-29.017,46.673-40.123,71.663c-20.965,47.172-33.857,97.856-39.487,149.119
				c-6.104,55.579-4.32,113.035,9.135,167.458c12.128,49.055,34.696,94.275,67.536,132.738
				c30.64,35.887,68.535,65.053,109.003,89.038c41.829,24.791,86.7,44.062,132.567,60.012
				c52.767,18.349,107.079,32.305,162.143,41.728c0.039,0.006,0.076,0.011,0.114,0.018c3.674,0.723,7.332,1.511,11.03,2.154
				c50.568,8.788,102.171,12.339,153.509,12.482c0.348,0.004,0.697,0.016,1.046,0.019c1.8,0.013,3.603-0.014,5.404-0.009
				c1.801-0.005,3.605,0.021,5.405,0.009c0.349-0.003,0.697-0.015,1.047-0.019c51.337-0.143,102.94-3.694,153.509-12.482
				c3.698-0.643,7.356-1.431,11.03-2.154c0.039-0.007,0.076-0.012,0.114-0.018c55.064-9.422,109.376-23.379,162.144-41.728
				c45.867-15.95,90.738-35.221,132.566-60.012c40.469-23.985,78.364-53.152,109.003-89.038
				c32.841-38.463,55.408-83.683,67.536-132.738C2071.685,1443.927,2073.467,1386.472,2067.363,1330.892z"/>
			<path style="fill:#A56D4B;" d="M2034.954,1537.598c-35.296,89.181-111.818,151.619-195.54,193.709
				c-44.453,22.349-91.386,39.748-139.034,53.929c-52.292,15.563-105.904,26.758-160.019,33.665
				c-40.156,5.125-80.62,7.869-121.101,8.177c-1.129-0.001-2.257,0.017-3.386,0.013c-1.129,0.004-2.256-0.014-3.384-0.013
				c-40.483-0.308-80.946-3.052-121.102-8.177c-54.115-6.907-107.726-18.102-160.018-33.665
				c-47.648-14.181-94.581-31.58-139.035-53.929c-83.721-42.09-160.242-104.528-195.539-193.709
				c-20.069-50.706-26.944-106.03-26.021-160.299c0.912-53.653,9.945-107.63,27.565-158.354
				c6.483-18.658,14.273-36.908,23.161-54.607c0.955-2.158,1.838-4.346,2.842-6.482c8.266-17.59,18.345-34.257,30.257-49.622
				c1.73-2.232,3.561-4.386,5.351-6.574c27.074-36.528,60.164-68.425,99.002-92.785c2.795-1.753,5.675-3.36,8.526-5.019
				c5.49-4.085,11.005-8.132,16.543-12.145c-50.304,21.565-92.331,56.636-125.716,99.039
				c23.144-51.216,44.789-103.14,62.945-156.285c13.223-38.706,24.799-78.016,33.829-117.921
				c9.096-40.193,15.05-80.811,18.703-121.841c3.586-40.293,5.978-80.84,13.84-120.599c7.239-36.606,19.83-71.78,40.206-103.18
				c37.106-57.179,94.493-99.454,157.027-125.237c37.274-15.368,76.535-24.961,116.334-30.955
				c38.123-5.741,76.322-6.763,114.685-8.804c38.364,2.041,76.563,3.063,114.687,8.804c39.798,5.993,79.06,15.587,116.333,30.955
				c62.534,25.783,119.92,68.058,157.027,125.237c20.376,31.399,32.969,66.574,40.206,103.18
				c7.862,39.759,10.253,80.307,13.84,120.599c3.652,41.03,9.606,81.649,18.702,121.841c9.03,39.904,20.606,79.214,33.828,117.921
				c18.157,53.146,39.802,105.069,62.946,156.285c-33.384-42.403-75.412-77.474-125.715-99.039
				c5.536,4.013,11.052,8.06,16.543,12.145c2.849,1.658,5.729,3.266,8.525,5.019c38.839,24.36,71.928,56.257,99.002,92.785
				c1.79,2.188,3.62,4.342,5.351,6.574c11.912,15.364,21.99,32.031,30.258,49.622c1.003,2.137,1.886,4.324,2.841,6.482
				c8.888,17.699,16.678,35.949,23.161,54.607c17.62,50.723,26.653,104.7,27.565,158.354
				C2061.898,1431.567,2055.023,1486.892,2034.954,1537.598z"/>
			<path style="fill:#A56D4B;" d="M817.99,1580.222c0.896-1.424,1.765-2.877,2.667-4.293
				c24.302-38.157,51.526-75.836,83.669-107.845c24.441-24.339,51.34-47.123,79.142-67.512
				c29.973-21.981,64.573-43.397,101.604-50.612c19.641-3.827,38.878,6.007,57.759-3.388c10.583-5.267,19.658-12.618,28.131-20.811
				c22.555-21.807,41.132-47.688,59.216-73.196c17.062-24.068,33.223-48.854,51.271-72.207
				c10.42-13.483,21.213-26.284,29.373-41.362c8.341-15.41,14.155-31.949,18.437-48.906c9.623-38.103,14.488-77.308,19.094-116.259
				c4.591-38.84,8.094-77.896,5.673-117.025c-2.523-40.749-11.974-80.846-21.314-120.489c-7.123-30.238-16.043-60.071-30.467-87.709
				c-15.159-29.047-35.217-57.295-58.443-80.445c-22.568-22.493-49.855-40.35-78.461-54.189
				c-44.347-21.455-100.078-36.22-148.961-23.33c-13.766,26.137-22.998,54.326-28.757,83.458
				c-7.862,39.759-10.253,80.307-13.84,120.599c-3.652,41.031-9.606,81.649-18.703,121.841
				c-9.03,39.904-20.605,79.214-33.829,117.921c-18.156,53.146-39.802,105.069-62.945,156.285
				c33.385-42.403,75.412-77.474,125.716-99.038c-5.537,4.013-11.053,8.059-16.543,12.144c-2.85,1.659-5.731,3.266-8.526,5.02
				c-38.839,24.36-71.928,56.257-99.002,92.785c-1.789,2.188-3.62,4.342-5.351,6.574c-11.912,15.364-21.99,32.031-30.257,49.622
				c-1.004,2.137-1.887,4.324-2.842,6.482c-8.888,17.699-16.679,35.949-23.161,54.607c-17.62,50.722-26.653,104.7-27.565,158.354
				c-0.924,54.269,5.952,109.594,26.021,160.3C802.721,1552.572,809.9,1566.726,817.99,1580.222z"/>
			<path style="fill:#A56D4B;" d="M1857.968,694.702c-3.587-40.293-5.978-80.84-13.84-120.599
				c-7.238-36.606-19.83-71.78-40.206-103.18c-1.293-1.993-2.668-3.923-4.01-5.88c-29.157,4.884-58.285,9.906-87.011,17.026
				c-48.32,11.976-98.307,29.974-133.803,66.396c-20.364,20.895-32.382,45.633-39.229,73.826
				c-6.791,27.963-9.276,56.741-15.353,84.846c-6.219,28.755-20.125,54.896-30.696,82.209
				c-10.281,26.562-18.014,53.924-20.852,82.337c-1.577,15.786-1.495,31.659-2.339,47.489c-0.83,15.595-1.688,31.189-2.37,46.791
				c-1.452,33.3-2.171,66.704-0.177,99.997c1.818,30.366,4.872,62.381,16.112,90.906c10.091,25.606,26.726,48.043,45.596,67.854
				c19.365,20.33,41.108,38.22,62.913,55.839c23.418,18.923,45.917,39.241,69.872,57.45c49.61,37.709,106.729,61.337,163.651,85.514
				c29.003,12.319,58.301,24.682,85.219,41.189c26.067,15.985,50.31,34.907,73.033,55.33c14.04,12.618,27.504,25.902,40.506,39.64
				c3.573-7.194,6.972-14.507,9.97-22.083c20.068-50.707,26.944-106.031,26.021-160.3c-0.912-53.653-9.945-107.631-27.565-158.354
				c-6.483-18.658-14.273-36.908-23.161-54.607c-0.955-2.158-1.838-4.346-2.841-6.482c-8.267-17.59-18.346-34.257-30.258-49.622
				c-1.73-2.232-3.561-4.386-5.351-6.574c-27.074-36.528-60.164-68.425-99.002-92.785c-2.796-1.753-5.676-3.36-8.525-5.02
				c-5.49-4.084-11.006-8.131-16.543-12.144c50.304,21.564,92.331,56.635,125.715,99.038
				c-23.144-51.216-44.79-103.14-62.945-156.285c-13.223-38.706-24.799-78.016-33.829-117.921
				C1867.574,776.351,1861.62,735.733,1857.968,694.702z"/>
			<path style="fill:#FFFFFF;" d="M1938.453,1489.112c-25.529-18.692-52.725-33.568-81.508-46.589
				c-28.4-12.849-57.375-24.364-85.881-36.966c-28.638-12.66-56.747-26.594-83.122-43.535
				c-26.555-17.056-49.759-37.852-74.107-57.763c-42.757-34.965-89.722-68.53-119.483-116.105
				c-15.425-24.657-23.028-51.467-27.208-80.065c-4.718-32.286-5.756-65.009-5.368-97.598c0.387-32.428,2.296-64.805,3.995-97.182
				c0.833-15.882,0.769-31.741,2.683-47.561c1.739-14.375,4.558-28.587,8.461-42.531c7.612-27.199,19.088-53.086,30.062-79.045
				c5.951-14.078,10.456-27.921,13.5-42.92c2.959-14.582,5.07-29.317,7.43-44.003c4.469-27.799,9.856-56.135,23.602-81.057
				c12.148-22.025,31.001-40.34,51.599-54.512c42.257-29.076,93.686-42.435,143.35-52.335c16.689-3.326,33.494-6.143,50.312-8.91
				c-37.109-51.882-91.228-90.568-149.875-114.748c-37.274-15.368-76.535-24.961-116.333-30.955
				c-38.123-5.741-76.323-6.763-114.686-8.804c-38.364,2.041-76.564,3.063-114.686,8.804c-39.799,5.993-79.06,15.587-116.334,30.955
				c-62.535,25.783-119.921,68.058-157.027,125.237c-2.921,4.499-5.637,9.096-8.244,13.745
				c61.046-13.828,128.047,9.872,179.423,41.992c52.76,32.988,94.397,84.576,118.25,141.942
				c12.509,30.083,19.768,61.998,26.545,93.763c8.627,40.432,16.213,80.097,16.22,121.621c0.008,40.418-5.318,80.583-10.258,120.622
				c-4.42,35.813-9.793,73.133-21.571,107.382c-5.448,15.842-12.799,30.983-22.158,44.89c-8.386,12.46-18.493,23.645-27.387,35.74
				c-18.514,25.179-35.683,51.319-54.078,76.586c-17.417,23.923-35.62,48.539-58.292,67.804
				c-9.06,7.699-20.098,15.814-31.919,18.347c-8.988,1.925-18.176,0.732-27.199-0.222c-10.205-1.078-19.141-0.837-29.076,1.887
				c-38.941,10.673-73.834,33.453-105.322,58.11c-24.714,19.353-49.264,40.109-70.914,62.894
				c-30.775,32.39-57.381,69.196-80.911,107.206c40.276,64.365,103.463,111.921,171.397,146.074
				c44.453,22.35,91.386,39.748,139.035,53.929c52.292,15.563,105.903,26.758,160.018,33.665
				c40.156,5.126,80.62,7.869,121.102,8.177c1.128-0.001,2.256,0.017,3.385,0.013c1.128,0.004,2.257-0.014,3.385-0.013
				c40.482-0.308,80.946-3.051,121.101-8.177c54.115-6.907,107.727-18.102,160.019-33.665
				c47.648-14.181,94.581-31.58,139.034-53.929c75.019-37.714,144.159-91.836,183.136-166.827
				C1996.739,1536.904,1968.786,1511.321,1938.453,1489.112z"/>
			<path style="fill:#CBC19B;" d="M1197.99,378.343c-7.158,17.254-13.293,35.088-17.544,53.294c-4.365,18.695-5,38.663-0.358,57.381
				c2.677,10.789,7.39,21.155,14.688,29.618c7.636,8.856,17.593,15.116,28.492,19.153c4.116-6.539,8.678-12.795,13.763-18.614
				c19.258-22.039,44.835-37.394,72.269-47.051c2.001-0.705,2.879,1.85,1.848,3.175c-6.599,8.476-13.306,16.882-19.367,25.759
				c-5.128,7.51-9.974,15.431-13.084,24.019c15.163-3.167,30.522-5.277,45.82-7.68c29.222-4.588,58.034-11.798,85.473-22.981
				c27.223-11.094,52.897-25.547,79.4-38.188c1.46-0.697,3.23,0.447,2.79,2.144c-3.618,13.945-12.838,25.246-20.183,37.37
				c7.458,0.863,15.015-0.61,22.084-3.027c16.918-5.78,32.033-16.552,46.12-27.305c13.05-9.961,25.342-20.904,38.568-30.633
				c1.192-0.876,2.867,0.313,2.858,1.641c-0.074,10.787-3.069,21.266-3.494,31.998c11.8-0.256,22.573-7.79,31.03-15.389
				c9.855-8.855,18.253-19.332,25.536-30.368c6.188-9.376,11.488-19.208,15.413-29.739c4.986-13.374,8.048-27.435,9.404-41.69
				c-4.188-1.903-8.381-3.794-12.623-5.543c-37.274-15.367-76.535-24.961-116.333-30.955c-38.123-5.74-76.323-6.763-114.687-8.804
				c-38.363,2.041-76.563,3.064-114.685,8.804c-26.853,4.044-53.443,9.784-79.362,17.773
				C1212.161,346.756,1204.557,362.513,1197.99,378.343z"/>
			<path style="opacity:0.4;fill:#A56D4B;" d="M2060.975,1377.299c-0.912-53.654-9.945-107.631-27.565-158.354
				c-6.483-18.658-14.273-36.908-23.161-54.607c-0.955-2.158-1.838-4.346-2.841-6.482c-8.267-17.59-18.346-34.257-30.258-49.621
				c-1.73-2.232-3.561-4.386-5.351-6.574c-27.074-36.53-60.164-68.426-99.002-92.786c-2.796-1.753-5.676-3.359-8.525-5.019
				c-5.49-4.085-11.006-8.131-16.543-12.145c50.304,21.565,92.331,56.636,125.715,99.04
				c-23.144-51.217-44.79-103.141-62.946-156.286c-13.223-38.706-24.798-78.016-33.828-117.921
				c-9.096-40.192-15.05-80.81-18.702-121.842c-3.587-40.292-5.978-80.839-13.84-120.598c-7.238-36.606-19.83-71.78-40.206-103.179
				c-22.263-34.308-51.859-63.206-85.456-86.439c16.552,24.031,30.1,50.129,40.316,77.469
				c15.075,40.342,22.977,83.334,23.052,126.405c0.003,1.686-2.059,2.453-3.242,1.344c-4.025-3.773-8.146-7.438-12.395-10.957
				c-29.322-24.283-65.406-42.373-103.99-43.955c-35.656-1.462-69.639,12.179-95.912,36.037
				c-32.531,29.54-53.081,71.46-64.92,113.224c-13.155,46.403-15.94,95.235-13.474,143.216
				c2.446,47.614,10.142,94.819,20.368,141.338c0.365,1.664-1.286,2.893-2.79,2.145c-13.48-6.707-27.391-12.51-41.697-17.215
				c-50.67-16.664-107.916-20.07-156.593,4.701c-1.559,0.793-3.756-0.925-2.598-2.599c3.671-5.311,7.12-10.769,10.296-16.391
				c26.274-46.501,33.836-101.25,31.029-153.969c-1.415-26.569-5.448-52.973-11.554-78.86
				c-5.613-23.792-12.453-47.824-22.428-70.186c-18.618-41.741-50.326-79.441-96.341-90.693
				c-24.231-5.926-50.193-3.969-74.162,2.329c-22.239,5.845-43.006,16.274-61.359,30.081
				c-37.836,28.464-64.433,69.463-85.026,111.47c-0.691,1.409-3.206,1.135-3.472-0.454c-4.045-24.115-5.567-48.6-4.943-73.037
				c0.567-22.166,2.852-44.329,6.742-66.207c-2.191,8.041-4.128,16.166-5.752,24.378c-7.862,39.759-10.253,80.307-13.84,120.598
				c-3.652,41.032-9.606,81.651-18.703,121.842c-9.03,39.904-20.606,79.214-33.829,117.921
				c-18.156,53.146-39.802,105.069-62.945,156.286c33.385-42.404,75.412-77.475,125.716-99.04
				c-5.537,4.014-11.053,8.06-16.543,12.145c-2.85,1.659-5.731,3.266-8.526,5.019c-38.839,24.36-71.928,56.256-99.002,92.786
				c-1.789,2.187-3.62,4.341-5.351,6.574c-11.912,15.364-21.99,32.031-30.257,49.621c-1.004,2.137-1.887,4.324-2.842,6.482
				c-4.191,8.344-8.115,16.822-11.795,25.396c20.606-25.452,46.3-48.403,77.729-57.998c1.356-0.413,2.772,0.968,2.337,2.336
				c-4.142,13.022-8.745,25.883-13.523,38.683c-19.113,51.202-39.965,102.547-38.421,158.23
				c1.561,56.289,19.69,112.067,47.387,160.787c51.591,90.756,142.315,156.988,237.013,197.411
				c101.316,43.249,213.381,57.482,322.892,52.944c58.996-2.445,117.749-10.756,175.077-24.912
				c55.036-13.592,110.092-31.995,160.798-57.541c23.901-12.041,46.869-25.984,68.324-41.996
				c21.483-16.034,43.639-34.41,59.978-55.832c14.161-18.567,24.919-39.528,37.076-59.396c10.928-17.857,22.902-36.16,39.961-48.763
				c0.673-0.497,1.752-0.238,2.302,0.297c22.029,21.445,30.893,53.528,34.328,83.202c0.893,7.714,1.459,15.577,1.642,23.489
				c3.752-7.489,7.221-15.174,10.349-23.078C2055.023,1486.892,2061.898,1431.568,2060.975,1377.299z"/>
			<path style="opacity:0.4;fill:#A56D4B;" d="M1857.729,691.925c-3.656,110.033,15.317,219.595,39.267,326.613
				c0.016,0.078,0.004,0.158,0.014,0.236c29.092,19.724,54.621,44.267,76.435,71.976c-23.144-51.217-44.79-103.141-62.945-156.286
				c-13.223-38.706-24.799-78.017-33.829-117.921c-9.095-40.192-15.05-80.81-18.703-121.842
				C1857.885,693.777,1857.81,692.85,1857.729,691.925z"/>
			<path style="opacity:0.4;fill:#A56D4B;" d="M1873.224,1009.158c-18.498-9.573-38.542-15.656-58.72-21.322
				c45.775,29.747,82.5,70.961,111.221,117.422c29.276,47.358,49.814,98.911,69.944,150.608
				c11.974,30.751,23.661,61.646,33.388,93.195c4.926,15.975,9.349,32.109,13.073,48.407c3.708,16.233,7.783,32.451,10.449,48.898
				c0.968,5.971,1.71,11.964,2.342,17.965c4.783-28.737,6.548-58.033,6.054-87.032c-0.912-53.654-9.945-107.632-27.565-158.354
				c-6.482-18.658-14.273-36.908-23.161-54.607c-0.955-2.158-1.838-4.346-2.842-6.482c-8.266-17.59-18.345-34.257-30.257-49.621
				c-1.73-2.232-3.562-4.387-5.351-6.574C1944.826,1065.268,1911.875,1033.483,1873.224,1009.158z"/>
			<path style="opacity:0.4;fill:#A56D4B;" d="M958.952,1008.875c-38.84,24.36-71.929,56.256-99.002,92.786
				c-1.789,2.186-3.62,4.341-5.352,6.574c-8.925,11.513-16.822,23.758-23.698,36.575c8.289-9.164,16.751-18.17,25.573-26.81
				c12.759-12.494,26.026-24.662,40.158-35.589c16.217-12.539,33.594-23.455,51.473-33.451
				c35.086-19.618,71.906-35.969,106.607-56.287c-6.955-3.172-14.464-5.055-22.041-6.001c-18.491-2.308-37.518-0.212-55.652,3.65
				c-16.922,3.604-33.744,8.837-49.27,16.541c-1.588,0.789-4.083-0.131-3.888-2.232c1.419-15.334,3.571-30.581,5.64-45.837
				c1.92-14.16,3.369-28.348,4.968-42.544c1.432-12.719,3.022-25.419,4.609-38.119c-5.501,18.914-11.46,37.697-17.826,56.333
				c-18.157,53.146-39.802,105.069-62.946,156.286c33.385-42.405,75.412-77.475,125.716-99.04
				c-5.537,4.014-11.054,8.06-16.543,12.145C964.628,1005.515,961.747,1007.121,958.952,1008.875z"/>
			<path style="fill:#634934;" d="M1634.018,292.93c-8.218-19.452-24.89-33.23-44.444-39.381c4.023-4.039,7.721-8.396,10.787-13.206
				c4.896-7.681,8.288-16.468,9.458-25.52c1.27-9.813-0.488-18.501-3.888-27.648c-1.385-3.728-6.852,0.104-7.071,2.733
				c-0.798,9.555-11.959,14.652-19.219,18.974c-9.415,5.606-19.363,10.554-29.986,13.405c-12.629,3.39-26.859,3.641-39.196-0.939
				c2.216-4.682,4.547-9.302,7.389-13.663c4.726-7.252,10.432-13.783,16.948-19.481c6.995-6.116,14.798-9.986,22.779-14.535
				c4.78-2.725,12.435-10.212,7.084-15.917c-2.714-2.891-8.118-3.433-11.771-4.074c-5.46-0.959-11.011-1.226-16.546-1.108
				c-10.057,0.213-20.128,1.75-29.904,4.076c-18.016,4.286-35.968,11.942-48.993,25.508c-6.606,6.882-11.755,15.09-14.857,23.94
				c-2.297-35.547,12.435-71.888,41.857-93.337c1.881-1.372,4.522-7.212,0.135-7.257c-16.563-0.167-32.12,6.325-46.45,14.123
				c-13.325,7.252-25.616,16.455-36.43,27.091c-10.803,10.626-20.246,22.739-27.767,35.899c-7.965,13.935-15.227,30.003-16.02,46.26
				c-0.091,1.87-0.063,3.737,0.023,5.597c-3.602-6.5-6.138-13.627-7.537-20.736c-4.545-23.096,1.735-47.175,9.047-69.022
				c0.715-2.138-0.867-4.422-3.259-3.294c-22.22,10.478-40.141,29.497-48.446,52.737c-7.385,20.667-6.743,43.556,1.15,63.842
				c-17.577-12.987-33.767-28.72-42.367-48.976c-2.843-6.696-4.588-13.674-5.498-20.886c-0.941-7.453-0.405-15.46-2.058-22.782
				c-1.039-4.607-4.496-8.016-9.428-6.257c-5.716,2.038-11.106,8.71-15.116,13.003c-9.443,10.109-17.274,21.597-23.938,33.693
				c-6.944,12.604-13.127,25.792-16.332,39.886c-4.503,19.808-1.644,40.311,7.07,58.277c-17.531-5.853-33.483-16.62-45.246-30.875
				c-2.454-2.974-7.751,1.153-7.896,4.102c-1.584,32.404,11.96,65.099,34.431,88.2c7.005,7.201,14.88,13.252,23.309,18.297
				c-13.856,25.708-18.213,56.602-13.967,85.341c2.98,20.164,10.687,42.707,30.777,51.632c1.884,0.837,3.947-0.802,4.659-2.451
				c0.062-0.144,0.122-0.287,0.184-0.43c1.65-0.379,3.271-1.308,4.67-2.702c2.383-2.376,4.12-5.56,6.136-8.242
				c2.399-3.194,4.909-6.298,7.542-9.303c19.82-22.62,45.107-39.979,72-53.153c8.877-4.35,17.95-8.272,27.14-11.907
				c-10.199,10.719-20.13,21.718-30.099,32.566c-1.644,1.789-3.116,6.808,0.886,6.996c67.37,3.159,134.48-21.106,184.933-65.726
				c-5.705,9.434-12.25,18.376-19.652,26.529c-2.166,2.387-2.686,7.911,2.024,7.185c22.781-3.512,44.467-15.82,59.635-33.11
				c5.078-5.787,9.43-12.162,13.121-18.904c0.91,2.212,1.878,4.41,2.821,6.647c2.432,5.765,4.881,11.523,7.292,17.297
				c0.994,2.378,4.059,1.87,5.797,0.829c14.51-8.688,25.163-22.94,29.227-39.373c2.285-9.241,2.109-18.508,0.014-27.371
				c6.481,7.671,11.592,16.461,14.962,26.119c1.405,4.029,6.618,0.797,8.134-1.123
				C1641.214,349.296,1644.746,318.32,1634.018,292.93z"/>
			<path style="fill:#A47A5C;" d="M1630.928,329.365c-0.644,10.729-3.613,20.993-8.896,30.157
				c-6.074-13.699-15.614-25.596-27.684-34.49c0.141,8.758-0.508,17.529-1.893,26.187c3.651,18.979-3.768,39.507-19.713,51.549
				c-1.882-4.543-3.757-9.089-5.631-13.634c-1.815-4.397-3.407-8.747-5.762-12.778c0.051-0.131,0.119-0.254,0.17-0.385
				c2.079-5.36,3.762-10.928,4.787-16.587c0.013-0.072,0.026-0.148,0.038-0.22c-6.503,9.278-12.512,18.903-19.501,27.764
				c-2.94,5.261-6.346,10.263-10.325,14.771c-11.508,13.035-26.264,21.931-42.632,26.915c6.477-8.919,12.115-18.369,16.682-28.49
				c0.787-1.743,1.524-3.497,2.221-5.258c1.91-1.932,3.722-3.958,5.57-5.95c-11.329,8.074-23.105,15.537-35.289,22.273
				c-6.157,4.766-12.529,9.255-19.111,13.432c-27.393,17.386-58.147,29.535-90.086,35.307c-15.709,2.839-31.598,3.988-47.526,3.585
				c6.999-7.63,13.984-15.285,21.018-22.893c1.906-6.249,6.025-11.778,10.442-16.47c1.1-1.168,2.255-2.3,3.438-3.406
				c-2.726,0.3-5.453,0.662-8.182,1.005c-5.113,1.908-10.207,3.871-15.247,5.97c-25.942,10.803-50.773,24.379-72.596,42.188
				c-10.296,8.402-19.78,17.73-28.212,28.008c-0.704,0.86-1.354,1.763-2.044,2.635c-0.832,1.232-1.638,2.483-2.482,3.65
				c-3.073,4.247-9.199,13.111-14.832,7.1c-1.765-1.885-2.966-4.287-3.963-6.715c-7.359-9.351-11.152-21.954-13.555-33.254
				c-3.784-17.79-3.97-36.094-0.156-53.893c2.325-10.851,6.203-21.177,11.437-30.643c0.213,0.112,0.433,0.21,0.647,0.321
				c1.171-2.69,2.549-5.255,4.134-7.681c-0.073-0.038-0.15-0.069-0.222-0.108c11.847-17.826,28.889-31.875,49.857-39.344
				c8.855-3.154,18.194-5.143,27.58-5.727c9.992-0.622,21.44-1.254,31.077,1.846c1.55,0.498,3.571-2.27,1.874-2.816
				c-9.025-2.902-17.196-6.103-26.803-6.478c-8.925-0.347-17.99,0.941-26.594,3.27c-18.33,4.961-35.358,14.901-48.692,28.424
				c-5.297,5.371-9.949,11.253-13.977,17.52c-18.952-11.764-34.267-28.958-43.785-49.476c-5.625-12.125-8.789-24.87-9.619-37.974
				c13.823,13.045,31.201,21.527,49.693,24.937c0.111,0.175,0.246,0.336,0.359,0.511c2.452-0.008,4.903-0.118,7.332-0.382
				c4.782-0.517,9.5-1.492,13.995-3.234c1.228-0.476,2.429-1.014,3.621-1.572c-7.109,0.057-14.202-0.669-21.129-2.223
				c-9.23-15.246-13.997-33.231-12.205-51.025c1.404-13.939,6.825-27.136,13.197-39.486c5.929-11.494,12.808-22.669,21.014-32.691
				c4.093-4.999,8.581-9.696,13.415-13.982c0.482-0.427,3.318-3.347,3.869-3.231c1.331,0.282,1.591,2.114,1.805,3.146
				c0.672,3.236,0.634,6.723,0.909,10.007c1.056,12.655,3.029,24.892,8.552,36.439c9.491,19.84,25.841,35.283,43.502,48.168
				c1.232,0.424,2.452,0.878,3.715,1.231c4.159,1.164,8.39,1.922,12.658,2.397c-0.033-0.281-0.088-0.558-0.234-0.807
				c-12.316-21.089-15.621-47.223-7.73-70.49c6.622-19.526,20.513-36.076,38.393-46.198c-6.945,21.708-12.424,44.747-7.071,67.381
				c2.686,11.362,7.975,21.838,15.623,30.169c0.352,1.147,0.749,2.275,1.182,3.388c0.695-4.656,1.804-9.261,3.19-13.802
				c-0.306-17.181,6.876-35.705,14.7-49.719c13.076-23.426,32.117-43.253,54.965-57.311c11.272-6.936,24.24-13.524,37.622-15.758
				c-30.451,28.308-45.16,73.77-33.837,114.068c2.834-6.634,6.213-13.066,10.243-19.071c2.233-7.629,6.299-14.789,11.556-20.757
				c11.053-12.545,27.026-19.687,42.946-23.772c8.605-2.208,17.48-3.693,26.341-4.329c4.607-0.33,9.228-0.372,13.834,0.015
				c4.084,0.342,10.371,0.476,13.985,2.621c2.421,1.436,0.78,2.32-1.098,3.521c-1.567,1.004-3.364,1.707-5.021,2.551
				c-3.303,1.682-6.518,3.523-9.61,5.57c-6.269,4.154-12.126,9.024-17.342,14.44c-7.092,7.368-14.034,16.404-18.599,26.206
				c-0.544,2.236-0.958,4.484-1.242,6.74c1.36,1.82,2.842,3.551,4.451,5.146c13.797,5.854,29.98,5.626,44.716,1.305
				c12.471-3.657,24.084-9.925,35.109-16.7c4.953-3.045,10.768-6.854,14.432-11.77c3.39,13.268-1.529,28.741-9.018,39.469
				c-3.102,4.443-6.809,8.435-10.818,12.094c-3.969-0.868-8.015-1.467-12.116-1.707c-4.324-0.253-8.615-0.11-12.85,0.35
				c4.165,0.792,8.301,1.712,12.346,2.907c9.534,2.816,19.077,6.894,27.006,13.029c0.674,0.374,1.36,0.725,2.02,1.121
				C1620.649,280.291,1632.411,304.672,1630.928,329.365z"/>
			<path style="fill:#A47A5C;" d="M1364.728,231.889c0.181,1.164,0.308,2.34,0.523,3.495c3.442,18.516,11.256,36.754,23.986,50.779
				c-5.918-17.279-10.365-35.15-9.737-53.549c0.617-18.103,5.94-35.858,13.55-52.202c6.694-14.377,15.583-27.707,26.058-39.606
				c-16.159,12.781-29.793,28.652-39.863,46.693C1372.223,200.076,1365.766,216.279,1364.728,231.889z"/>
			<path style="fill:#A47A5C;" d="M1459.793,188.67c-5.257,5.968-9.324,13.128-11.556,20.758c-1.191,1.774-2.308,3.595-3.388,5.438
				c-1.978,10.43-2.233,21.195-0.65,31.692c1.832-12.842,7.322-25.1,14.609-35.859c14.055-20.75,33.76-36.355,55.516-48.275
				c-3.896,0.684-7.769,1.495-11.584,2.475C1486.819,168.984,1470.847,176.125,1459.793,188.67z"/>
			<path style="fill:#A47A5C;" d="M1221.538,259.44c11.514,19.171,32.078,29.857,52.575,37.263
				c-6.987-8.573-15.554-15.79-23.325-23.627c-16.095-16.231-27.523-36.956-31.408-59.601c-0.519-3.025-0.872-6.064-1.085-9.105
				c-1.552,2.616-3.046,5.257-4.486,7.928C1211.498,228.515,1213.242,245.625,1221.538,259.44z"/>
			<path style="fill:#A47A5C;" d="M1345.134,290.56c2.856,0.301,5.489-2.449,6.433-5.026c1.413-3.851-0.571-7.92-2.743-11.055
				c-3.052-4.404-7.296-8.062-11.609-11.183c-4.38-3.17-9.1-5.957-14.057-8.128c-0.39-0.17-0.795-0.313-1.191-0.476
				c0.696,1.95,1.398,3.899,2.161,5.823c3.463,8.732,7.536,18.101,13.84,25.201C1339.814,287.797,1342.302,290.261,1345.134,290.56z
				"/>
			<path style="fill:#A47A5C;" d="M1348.167,387.453c4.139,2.552,9.173,3.443,13.997,3.448c12.1,0.014,24.37-4.771,34.159-11.696
				c6.152-4.353,12.621-10.785,14.785-18.324c-10.527,2.379-20.769,6.186-30.655,10.408
				C1369.385,376.017,1358.598,381.443,1348.167,387.453z"/>
			<path style="fill:#A47A5C;" d="M1230.393,409.902c4.036-5.686,8.179-11.297,12.551-16.731
				c14.167-17.608,31.312-35.466,51.497-47.067c-1.172,0.249-2.35,0.458-3.512,0.753
				C1261.26,354.404,1232.089,377.877,1230.393,409.902z"/>
			<path style="fill:#6C5049;" d="M1901.2,1271.616c-3.167-5.319-6.621-10.429-10.305-15.37
				c11.687-66.637,11.853-144.018-38.563-193.915c-27.371-27.089-64.722-45.793-103.575-45.683
				c-20.499,0.057-40.615,3.893-60.816,6.901c-20.419,3.039-40.97,4.535-61.617,4.047c-22.973-0.544-45.875-3.07-68.437-7.411
				c-11.014-2.119-21.985-4.597-32.845-7.398c-8.413-2.17-16.99-3.727-25.432-5.783c-8.34-3.217-16.729-6.297-25.213-9.084
				c-27.589-9.066-56.034-15.521-85.103-17.071c-28.132-1.499-55.652,2.203-82.66,10.048c-26.627,7.734-52.344,18.248-78.914,26.156
				c-28.592,8.51-57.611,11.858-87.399,11.775c-28.571-0.08-57.199-2.453-85.694,0.761c-25.335,2.856-50.704,10.218-71.36,25.631
				c-18.752,13.993-32.699,33.102-43.065,53.908c-12.69,25.47-19.998,53.468-24.834,81.399c-3.356,19.391-5.361,39.017-5.763,58.67
				c-11.073,3.711-21.826,8.462-32.243,13.83c-17.117,8.821-36.335,21.46-34.054,43.426c1.153,11.098,6.864,21.412,11.874,31.172
				c4.573,8.908,9.332,17.719,14.405,26.354c10.281,17.499,21.704,34.34,34.119,50.394c9.96,12.88,20.606,25.235,31.824,37.053
				c0.868,4.671,1.742,9.341,2.745,13.989c5.037,23.339,11.249,46.366,19.612,68.749c16.338,43.735,41.409,83.905,77.69,113.814
				c74.249,61.208,176.723,76.644,269.811,81.757c111.17,6.106,223.698-6.805,330.352-38.911
				c94.684-28.502,186.919-77.049,244.866-159.733c26.301-37.528,44.339-81.358,48.544-127.192
				C1933.327,1358.351,1924.742,1311.151,1901.2,1271.616z"/>
			<path style="fill:#E6AC9C;" d="M1887.557,1505.325c-48.933,85.03-135.441,137.749-226.089,169.038
				c-101.743,35.119-211.296,50.386-318.748,48.287c-50.374-0.984-101.172-5.257-150.548-15.581
				c-43.927-9.185-87.359-23.845-125.36-48.129c-38.849-24.826-68.262-59.665-88.617-100.842
				c-15.304-30.96-25.387-64.148-33.9-97.631c43.679,43.683,95.721,79.065,152.756,102.794
				c26.715,11.114,54.236,19.641,82.245,26.011c7.82,3.66,15.417,7.837,22.812,11.75c19.297,10.209,38.586,20.496,58.462,29.542
				c39.312,17.891,80.666,29.442,123.824,32.607c83.002,6.088,165.236-16.175,237.528-56.339
				c19.598-10.889,38.476-23.06,56.58-36.28c16.896-12.339,33.509-25.486,48.539-40.102c0.116-0.134,0.217-0.281,0.335-0.413
				c1.051-1.182,2.222-2.237,3.443-3.229c0.94-1.047,1.32-2.083,1.309-2.999c17.936-8.017,35.512-16.825,52.553-26.638
				c18.551-10.682,36.677-22.33,52.441-36.912c14.239-13.172,27.517-29.458,33.381-48.242c1.006-3.222,1.712-6.491,2.277-9.778
				c0.353-0.036,0.701-0.11,1.055-0.135c2.227-0.16,4.932,0,7.648,0.459c0.02,0.004,0.039-0.003,0.058,0.001
				c-0.435-1.349-0.9-2.689-1.434-4.001c-1.4-3.437-3.401-7.624-6.848-9.435c-3.802-1.998-8.043,0.758-10.805,3.331
				c-5.386,5.017-7.985,12.108-11.641,18.389c0.234-0.009,0.463-0.004,0.721-0.07c3.207-0.816,5.655-2.982,8.48-4.612
				c0.134-0.077,1.224-0.651,1.306-0.709c0.534-0.257,1.069-0.508,1.614-0.74c0.376-0.16,0.769-0.272,1.149-0.42
				c-7.451,32.488-36.921,57.22-64.016,74.462c-37.902,24.119-79.034,42.843-121.371,57.706
				c-42.925,15.069-87.127,26.187-131.702,35.132c-44.743,8.979-89.912,16.13-135.358,20.396
				c-90.608,8.502-183.915,5.315-271.161-22.596c-76.053-24.331-145.211-67.858-200.31-125.62c-0.154-0.637-0.304-1.273-0.454-1.909
				c-2.446-2.395-4.823-4.858-7.134-7.383c0.072,0.452,0.142,0.904,0.216,1.355c-24.548-26.921-46.071-56.577-63.769-88.432
				c-4.956-8.921-9.752-18.023-13.811-27.393c-4.534-10.47-7.688-22.474-0.656-32.612c5.673-8.178,15.178-13.234,23.723-17.861
				c10.044-5.437,20.525-10.079,31.249-14.009c-0.001,0.542,0.014,1.084,0.016,1.627c2.56-1.16,5.14-2.281,7.742-3.357
				c0.009-0.334,0.003-0.667,0.011-1.002c4.644-1.61,9.308-3.176,13.986-4.697c4.517-1.863,8.977-3.841,13.347-6.011
				c-0.144-0.313-0.449-0.527-1.012-0.469c-8.899,0.928-17.616,2.711-26.152,5.144c1.516-41.65,7.953-83.537,23.592-121.98
				c8.587-21.112,20.478-41.047,37.281-56.653c18.989-17.635,43.382-26.706,68.725-30.409c27.421-4.008,55.077-2.166,82.641-1.168
				c13.955,0.506,27.91,0.942,41.867,0.187c13.984-0.756,27.726-3.13,41.296-6.544c52.507-13.21,101.443-39.203,156.465-41.141
				c31.818-1.12,63.471,4.646,94.185,12.473c15.49,3.947,30.793,8.457,45.945,13.428c1.816,0.749,3.633,1.492,5.483,2.147
				c2.624,0.93,5.305,1.759,8.002,2.559c7.378,1.263,14.781,2.472,22.091,4.028c7.015,1.492,13.793,3.781,20.653,5.817
				c12.041,2.156,24.164,3.857,36.353,4.914c19.324,1.675,38.83,1.758,58.171,0.282c20.317-1.551,40.32-5.456,60.504-8.083
				c20.14-2.621,40.792-3.691,60.484,2.233c18.184,5.472,35.402,15.46,50.492,26.861c29.348,22.175,46.729,54.315,53.852,90.056
				c6.803,34.143,3.692,68.365,0.038,102.559c0.184,2.424,0.239,4.86,0.199,7.298c5.738,12.629,11.404,25.292,16.847,38.052
				c0.24,0.563,0.208,1.106,0.014,1.568c11.159,25.088,17.269,52.373,18.343,80.075
				C1922.761,1420.907,1910.228,1465.929,1887.557,1505.325z"/>
			<path style="fill:#E6AC9C;" d="M947.602,1142.722c16.322-26.788,39.35-48.692,68.698-60.559
				c31.3-12.656,65.509-11.742,98.538-8.992c19.278,1.605,38.749,3.514,58.069,1.454c18.3-1.952,35.361-8.431,51.646-16.755
				c15.063-7.7,29.553-16.541,45.093-23.287c15.609-6.776,31.585-10.407,48.574-11.235c35.816-1.745,71.093,7.386,105.212,17.22
				c35.294,10.172,70.708,21.915,107.541,24.849c38.543,3.07,74.937-7.019,111.732-17.102c17.89-4.902,35.898-9.608,54.302-12.139
				c18.928-2.603,38.201-3.401,57.293-3.332c14.278,0.051,28.562,0.731,42.789,2.029c-5.193-2.337-10.488-4.396-15.881-6.018
				c-19.691-5.926-40.344-4.855-60.484-2.234c-20.184,2.627-40.187,6.533-60.504,8.083c-19.341,1.475-38.847,1.391-58.171-0.283
				c-12.189-1.055-24.312-2.756-36.353-4.913c-6.86-2.036-13.638-4.323-20.653-5.816c-7.31-1.555-14.713-2.764-22.091-4.028
				c-2.696-0.799-5.377-1.629-8.002-2.559c-1.849-0.656-3.667-1.398-5.483-2.146c-15.151-4.972-30.455-9.482-45.945-13.429
				c-30.714-7.827-62.368-13.594-94.185-12.473c-55.022,1.936-103.958,27.931-156.465,41.141
				c-13.57,3.413-27.312,5.787-41.296,6.544c-13.957,0.755-27.912,0.318-41.867-0.187c-27.564-0.997-55.22-2.84-82.641,1.168
				c-25.343,3.705-49.736,12.774-68.725,30.409c-16.802,15.606-28.693,35.542-37.281,56.652
				c-8.503,20.904-14.269,42.828-18.02,65.175C930.911,1174.041,938.363,1157.885,947.602,1142.722z"/>
			<path style="fill:#E6AC9C;" d="M1632.984,1144.863c-0.149,0.044-0.293,0.11-0.443,0.154
				c-10.067,5.222-19.766,11.14-28.799,17.851c-7.877,5.853-15.562,12.565-21.177,20.685c-4.262,6.164-7.416,13.539-6.44,21.153
				c5.811,2.918,12.64,2.487,18.802,0.927c15.222-3.852,29.079-13.676,40.465-24.184c5.715-5.275,11.076-11.046,15.502-17.455
				c3.158-4.574,6.015-9.629,7.173-15.122C1651.726,1141.7,1641.554,1142.369,1632.984,1144.863z"/>
			<path style="fill:#E6AC9C;" d="M1715.64,1113.948c-0.916,0.299-1.613-0.093-1.996-0.715c-4.861,2.297-8.655,6.461-8.74,11.989
				c4.329,0.724,8.97,0.034,12.743-2.212c3.522-2.098,5.724-5.489,5.176-9.486
				C1720.458,1112.693,1718.008,1113.176,1715.64,1113.948z"/>
			<path style="fill:#E6AC9C;" d="M1194.349,1238.567c-1.529-1.187-3.597-1.766-5.676-1.444c-2.96,0.457-5.495,2.291-7.66,4.303
				c-0.09,0.906-0.145,1.801-0.133,2.649c0.064,4.473,1.601,10.715,6.224,12.152c4.576,1.421,9.812-1.624,10.99-5.976
				C1199.177,1246.252,1197.774,1241.228,1194.349,1238.567z"/>
			<path style="fill:#E6AC9C;" d="M1459.45,1515.831c-50.562-2.114-101.059-6.184-151.501-10.163
				c-27.162-2.143-54.337-4.202-81.553-5.541c-13.061-0.642-26.193-0.592-39.236-1.407c-6.183-0.387-12.351-1.166-18.507-1.845
				c-10.885-1.201-21.794-2.38-32.726-3.152c13.831,5.54,27.44,11.666,41.676,16.119c22.577,7.062,46.661,10.53,70.101,13.254
				c46.086,5.353,92.735,5.87,139.079,5.219c37.706-0.529,75.432-1.505,113.025-4.63c22.875-1.902,45.738-4.606,68.372-8.552
				C1532.006,1517.563,1495.656,1517.344,1459.45,1515.831z"/>
			<path style="fill:#E6AC9C;" d="M1140.965,1161.476c-5.429-3.318-11.206-6.213-17.322-8.024c-3.619-1.072-7.679-1.93-11.479-1.281
				c-0.193,1.191-0.302,2.381-0.218,3.499c0.513,6.848,4.641,13.46,8.492,18.92c4.415,6.261,9.718,11.961,15.566,16.906
				c4.967,4.199,10.67,8.232,16.98,10.086c4.768,1.401,9.405,0.924,12.88-2.933c2.884-3.2,2.6-7.453,1.094-11.232
				c-2.086-5.24-6.019-9.732-10-13.626C1152.138,1169.075,1146.714,1164.99,1140.965,1161.476z"/>
			<path style="fill:#E6AC9C;" d="M1772.409,1192.149c-1.166-15.119,0.045-31.013-4.31-45.704c-1.699-5.728-4.612-11.422-9.963-14.5
				c-6.764-3.888-15.293-2.764-22.492-0.9c-12.017,3.11-23.269,7.56-34.066,13.724c-11.498,6.564-22.206,14.467-32.158,23.182
				c-17.175,15.039-31.984,32.497-44.36,51.664c-5.381,8.333-10.311,16.988-14.559,25.956c-4.22,8.907-8.021,18.384-9.434,28.199
				c-0.999,6.938-0.564,14.112,4.207,19.596c4.434,5.096,10.71,8.427,16.923,10.844c15.773,6.135,33.509,7.929,50.314,6.865
				c7.669-0.486,15.41-1.646,22.68-4.21c6.254-2.208,11.272-5.637,15.299-10.944c5.636-7.425,8.696-16.5,10.822-25.474
				c2.451-10.344,3.696-20.935,4.885-31.484c2.24-19.874,3.464-41.325,12.772-59.433c0.446-0.868,1.782-1.236,2.599-0.68
				c11.103,7.536,18.543,19.198,28.758,27.705c0.734-3.702,1.526-7.393,2.404-11.065
				C1772.616,1194.378,1772.495,1193.265,1772.409,1192.149z"/>
			<path style="fill:#E6AC9C;" d="M1176.464,1259.436c-2.03-2.97-4.057-5.939-6.089-8.907c-9.147-13.35-18.405-26.655-28.612-39.226
				c-8.619-10.615-18.082-20.233-27.866-29.748c-17.583-17.103-35.801-35.65-58.313-46.177c-8.765-4.099-19.333-7.174-28.933-4.33
				c-6.928,2.052-12.222,7.182-15.821,13.303c-8.994,15.305-9.664,35.168-8.107,52.379c0.826,9.125,2.534,18.22,5.333,26.952
				c1.971,6.148,4.576,12.371,8.388,17.666c6.387-10.887,11.231-22.613,17.329-33.662c0.745-1.348,3.191-1.185,3.472,0.453
				c0.285,1.668,0.533,3.34,0.761,5.015c2.466,18.181,3.175,36.554,5.773,54.725c2.601,18.196,6.295,38.058,17.213,53.321
				c4.561,6.375,10.769,11.626,18.27,14.135c8.191,2.74,17.091,2.316,25.369,0.188c9.878-2.539,19.309-6.831,28.236-11.705
				c10.355-5.655,20.227-12.331,29.076-20.148c3.637-3.213,7.373-6.86,10.814-10.846
				C1176.816,1282.323,1178.813,1270.441,1176.464,1259.436z"/>
			<path style="opacity:0.59;fill:#E6AC9C;" d="M1920.993,1375.324c-1.074-27.702-7.184-54.987-18.343-80.074
				c0.193-0.463,0.226-1.005-0.014-1.568c-5.442-12.76-11.108-25.423-16.847-38.052c0.04-2.439-0.015-4.874-0.199-7.298
				c3.654-34.194,6.765-68.416-0.038-102.56c-7.09-35.574-24.353-67.576-53.456-89.739c16.531,27.176,28.06,57.581,34.386,88.367
				c5.272,25.66,6.153,51.195,4.101,77.242c-2.36,29.958-3.456,61.028-12.936,89.801c-16.713,50.727-56.338,91.541-98.949,121.941
				c-45.823,32.69-98.374,56.814-151.775,74.202c-62.724,20.425-128.589,30.605-194.458,32.398
				c-65.849,1.794-131.896-4.74-196.325-18.33c-39.932-8.423-79.3-19.848-117.766-33.455
				c-41.094-14.538-81.468-31.812-119.226-53.689c-35.679-20.671-70.104-45.894-95.359-78.882
				c-15.14-19.777-25.851-42.236-30.528-66.107c-5.282,9.664-2.268,20.743,1.955,30.493c4.059,9.369,8.855,18.472,13.811,27.394
				c17.698,31.854,39.221,61.51,63.769,88.431c-0.074-0.45-0.145-0.903-0.216-1.354c2.311,2.524,4.688,4.987,7.134,7.382
				c0.15,0.636,0.299,1.272,0.454,1.909c55.098,57.761,124.256,101.29,200.31,125.62c87.246,27.911,180.553,31.097,271.161,22.595
				c45.446-4.264,90.615-11.416,135.358-20.394c44.575-8.946,88.777-20.063,131.702-35.133
				c42.337-14.863,83.469-33.587,121.371-57.707c27.095-17.242,56.565-41.973,64.016-74.462c-0.38,0.148-0.773,0.26-1.149,0.42
				c-0.545,0.232-1.08,0.483-1.614,0.741c-0.082,0.057-1.172,0.632-1.306,0.708c-2.826,1.63-5.273,3.795-8.48,4.611
				c-0.258,0.067-0.488,0.063-0.721,0.07c3.656-6.28,6.255-13.371,11.641-18.388c2.762-2.573,7.003-5.328,10.805-3.331
				c3.448,1.812,5.448,5.999,6.848,9.435c0.534,1.313,1,2.652,1.434,4c-0.02-0.003-0.039,0.004-0.058,0
				c-2.717-0.458-5.421-0.618-7.648-0.459c-0.354,0.025-0.703,0.099-1.055,0.134c-0.565,3.289-1.271,6.557-2.277,9.779
				c-5.863,18.784-19.142,35.07-33.381,48.242c-15.763,14.582-33.889,26.23-52.441,36.912c-17.042,9.813-34.617,18.62-52.553,26.637
				c0.01,0.917-0.37,1.954-1.309,3c-1.22,0.992-2.392,2.047-3.443,3.229c-0.118,0.133-0.219,0.278-0.335,0.412
				c-15.03,14.616-31.644,27.763-48.539,40.101c-18.104,13.221-36.983,25.392-56.58,36.281
				c-72.292,40.165-154.526,62.427-237.528,56.339c-43.158-3.166-84.512-14.716-123.824-32.607
				c-19.876-9.047-39.166-19.334-58.462-29.543c-7.395-3.914-14.992-8.09-22.812-11.75c-28.01-6.372-55.531-14.897-82.245-26.011
				c-57.036-23.728-109.078-59.111-152.756-102.794c4.201,16.521,8.791,32.969,14.195,49.116
				c48.971,37.009,102.62,68.142,156.99,96.191c33.429,17.245,69.144,31.207,104.953,42.648
				c35.036,11.194,71.05,19.306,107.583,23.67c78.116,9.332,158.927,2.405,234.929-17.527c19.197-5.035,38.156-10.978,56.781-17.836
				c19.176-7.06,37.594-15.472,55.934-24.457c13.923-6.82,28-13.39,41.287-21.397c10.673-6.432,22.066-13.937,34.417-16.604
				c8.273-1.785,16.816,0.805,20.791,8.737c4.092,8.168,2.971,18.303,1.482,26.972c-0.76,4.426-1.823,8.749-3.012,13.031
				c47.298-29.734,88.476-68.238,116.934-117.689C1910.228,1465.929,1922.761,1420.907,1920.993,1375.324z"/>
			<path style="fill:#E6AC9C;" d="M1920.993,1375.324c-1.074-27.702-7.184-54.987-18.343-80.074
				c0.193-0.463,0.226-1.005-0.014-1.568c-4.163-9.76-8.478-19.456-12.834-29.131c-6.229,23.775-14.961,46.88-25.715,68.977
				c-13.561,27.866-30.271,54.143-49.111,78.726c-19.042,24.848-40.215,48.02-62.916,69.564
				c-18.047,17.129-37.092,33.182-56.845,48.31c30.344-14.007,60.789-27.835,90.408-43.34c3.462-1.813,6.906-3.658,10.344-5.518
				c1.361-0.848,2.749-1.651,4.102-2.512c27.095-17.242,56.565-41.973,64.016-74.462c-0.38,0.148-0.773,0.26-1.149,0.42
				c-0.545,0.232-1.08,0.483-1.614,0.741c-0.082,0.057-1.172,0.632-1.306,0.708c-2.826,1.63-5.273,3.795-8.48,4.611
				c-0.258,0.067-0.488,0.063-0.721,0.07c3.656-6.28,6.255-13.371,11.641-18.388c2.762-2.573,7.003-5.328,10.805-3.331
				c3.448,1.812,5.448,5.999,6.848,9.435c0.534,1.313,1,2.652,1.434,4c-0.02-0.003-0.039,0.004-0.058,0
				c-2.717-0.458-5.421-0.618-7.648-0.459c-0.354,0.025-0.703,0.099-1.055,0.134c-0.565,3.289-1.271,6.557-2.277,9.779
				c-4.92,15.763-15.081,29.737-26.63,41.616c1.236-0.622,2.488-1.213,3.767-1.753c3.172-1.342,6.693-2.579,10.194-2.333
				c7.052,0.497,9.486,7.221,10.285,13.304c1.594,12.13,0.044,25.113-1.998,37.086c-3.598,21.09-10.582,41.543-19.694,60.961
				c15.544-16.784,29.427-35.24,41.129-55.573C1910.228,1465.929,1922.761,1420.907,1920.993,1375.324z"/>
			<path style="fill:#FFFFFF;" d="M1207.937,1594.976c54.795,9.55,111.039,11.458,166.54,8.323
				c48.156-2.72,96.051-9.137,143.494-17.715c46.398-8.39,92.533-18.732,137.54-32.878c20.142-6.331,40.035-13.509,59.556-21.567
				c-11.641,9.707-23.266,19.414-35.431,28.492c-15.809,11.797-32.217,22.797-49.196,32.842
				c-34.108,20.18-70.625,36.411-108.758,47.306c-40.276,11.507-82.468,17.008-124.351,15.236
				c-42.802-1.811-84.281-11.569-123.627-28.431c-22.297-9.555-43.914-20.626-65.577-31.516
				C1208.063,1595.036,1208,1595.007,1207.937,1594.976z"/>
			<path style="fill:#CBCCCE;" d="M1270.996,1609.429c27.598,5.666,56.089,8.633,84.132,11.076
				c27.751,2.419,55.636,3.555,83.489,2.823c26.087-0.686,51.981-3.525,77.858-6.74c33.206-4.125,66.296-9.304,99.143-15.71
				c4.985-2.725,9.935-5.512,14.823-8.404c16.979-10.044,33.386-21.045,49.196-32.842c12.165-9.078,23.789-18.786,35.431-28.492
				c-19.521,8.058-39.414,15.236-59.556,21.567c-45.007,14.146-91.141,24.488-137.54,32.878
				c-47.443,8.578-95.338,14.995-143.494,17.715c-47.901,2.707-96.351,1.626-143.95-4.853
				C1243.874,1602.633,1257.277,1606.613,1270.996,1609.429z"/>
			<path style="fill:#301F1A;" d="M1144.771,1235.232c-7.518-12.873-16.022-25.215-25.542-36.692
				c-18.929-22.817-42.156-42.498-69.185-55.006c-12.378-5.728-32.337-13.29-40.525,2.885c-3.728,7.367-2.874,16.62-2.618,24.604
				c0.34,10.562,1.474,21.085,2.857,31.556c0.307,2.322,3.723,0.497,3.544-1.363c-1.489-15.395-2.034-32.382,1.052-47.634
				c3.328-16.451,23.218-6.284,32.758-1.714c8.656,4.147,16.908,9.048,24.734,14.563c-0.856,1.206-1.278,2.65-0.782,3.953
				c6.265,16.445,9.228,33.343,10.768,50.822c1.451,16.471,0.928,33.786,4.425,49.985c1.376,6.376,3.865,12.862,9.146,17.021
				c5.649,4.451,12.852,5.336,19.814,4.511c7.071-0.839,14.162-3.172,20.739-5.837c6.083-2.465,12.118-5.77,16.186-11.064
				C1162.166,1262.775,1151.681,1247.062,1144.771,1235.232z"/>
			<path style="fill:#301F1A;" d="M1623.903,1275.82c4.067,5.293,10.102,8.598,16.185,11.064c6.577,2.665,13.668,4.998,20.739,5.837
				c6.962,0.826,14.165-0.06,19.814-4.511c5.281-4.159,7.77-10.645,9.146-17.021c3.496-16.199,2.974-33.514,4.425-49.985
				c1.54-17.479,4.504-34.377,10.768-50.822c0.496-1.303,0.074-2.747-0.781-3.953c7.825-5.514,16.077-10.416,24.733-14.563
				c9.541-4.57,29.43-14.737,32.758,1.714c3.086,15.252,2.541,32.239,1.052,47.634c-0.18,1.86,3.236,3.685,3.544,1.363
				c1.384-10.471,2.518-20.994,2.857-31.556c0.257-7.984,1.112-17.237-2.618-24.604c-8.188-16.175-28.146-8.613-40.525-2.885
				c-27.028,12.508-50.257,32.189-69.185,55.006c-9.521,11.477-18.024,23.818-25.542,36.692
				C1624.364,1247.062,1613.879,1262.775,1623.903,1275.82z"/>
			<path style="fill:#5C3D28;" d="M1293.599,655.382c-10.329-17.618-23.647-33.596-40.144-45.748
				c-11.908-8.775-25.313-15.139-39.428-19.281c-16.313-5.531-33.837-7.839-50.519-7.105
				c-41.373,1.821-80.088,22.448-109.405,50.909c-32.067,31.131-52.652,71.747-65.559,114.131
				c-6.915,22.711-12.049,46.158-15.097,69.704c-3.2,24.731-3.608,50.158,1.582,74.65c8.344,39.385,31.516,76.531,68.453,94.576
				c21.477,10.491,46.063,16.347,69.606,19.82c24.023,3.544,48.556,3.158,72.424-1.353c23.021-4.35,45.838-12.398,66.078-24.268
				c19.719-11.564,33.992-28.362,44.541-48.47c23.13-44.081,25.995-95.15,26.651-144.038
				C1323.399,742.992,1317.178,695.604,1293.599,655.382z"/>
			<path style="fill:#FFFFFF;" d="M1313.553,827.04c-1.438,23.407-3.195,47.069-9.778,69.689
				c-6.138,21.088-15.688,43.366-30.657,59.769c-14.979,16.414-36.301,26.612-56.935,33.91
				c-44.902,15.88-92.371,15.276-137.938,2.534c-20.693-5.786-40.614-14.013-56.672-28.649
				c-14.507-13.219-25.398-30.01-32.753-48.14c-17.459-43.027-14.107-91.689-4.048-136.068
				c9.664-42.629,25.75-84.555,52.464-119.527c24.249-31.746,58.425-57.477,97.575-67.201c4.639-1.152,9.344-1.971,14.071-2.639
				c8.917-2.738,18.796-2.445,27.928-1.383c10.138,1.177,20.089,3.605,29.38,7.591c24.636,6.982,47.007,21.403,64.079,41.376
				c27.547,32.228,39.784,74.288,43.332,115.861C1315.667,778.404,1315.043,802.788,1313.553,827.04z"/>
			<path style="fill:#CBCCCE;" d="M1313.599,754.164c-3.548-41.573-15.786-83.633-43.332-115.862
				c-17.072-19.972-39.443-34.393-64.079-41.376c-9.291-3.985-19.242-6.413-29.38-7.59c-9.132-1.061-19.011-1.355-27.928,1.382
				c-4.726,0.669-9.432,1.488-14.071,2.64c-39.15,9.724-73.326,35.456-97.575,67.201c-26.713,34.971-42.8,76.898-52.464,119.527
				c-10.059,44.379-13.411,93.041,4.048,136.068c7.355,18.129,18.246,34.921,32.753,48.14
				c16.058,14.635,35.979,22.863,56.672,28.649c45.567,12.742,93.036,13.347,137.938-2.534c20.634-7.298,41.955-17.495,56.935-33.91
				c14.969-16.403,24.519-38.681,30.657-59.77c6.584-22.619,8.341-46.282,9.778-69.688
				C1315.043,802.788,1315.667,778.404,1313.599,754.164z M1287.191,820.148c-1.685,21.999-5.586,44.025-13.068,64.83
				c-6.857,19.07-16.846,37.377-31.346,51.729c-14.425,14.277-32.973,22.933-52.204,28.77c-20.112,6.106-41.334,8.856-62.339,8.163
				c-20.615-0.679-41.214-4.703-60.187-12.903c-18.155-7.846-34.517-19.784-46.58-35.544c-12.63-16.501-19.193-36.304-22.511-56.628
				c-3.475-21.288-3.504-43.085-1.143-64.493c2.511-22.759,7.682-45.268,15.667-66.736c7.771-20.89,18.193-40.908,32.042-58.431
				c3.416-4.324,7.073-8.466,10.934-12.408c0.566-0.76,1.108-1.539,1.688-2.29c11.479-14.867,25.705-27.737,42.498-36.327
				c18.369-9.398,39.072-13.28,59.624-12.23c23.761,1.212,46.836,9.196,65.966,23.402c18.936,14.062,33.537,33.287,43.394,54.625
				c8.942,19.36,13.414,40.01,16.014,61.08C1288.313,776.414,1288.859,798.386,1287.191,820.148z"/>
			<path style="fill:#5C3D28;" d="M1514.538,788.909c0.655,48.888,3.52,99.957,26.65,144.038
				c10.55,20.108,24.824,36.906,44.541,48.47c20.24,11.871,43.058,19.919,66.078,24.268c23.87,4.511,48.401,4.897,72.425,1.353
				c23.543-3.473,48.129-9.329,69.605-19.82c36.937-18.045,60.109-55.191,68.454-94.576c5.189-24.492,4.782-49.919,1.582-74.65
				c-3.048-23.546-8.182-46.993-15.098-69.704c-12.906-42.383-33.49-82.999-65.559-114.131
				c-29.316-28.461-68.031-49.089-109.404-50.909c-16.682-0.734-34.206,1.574-50.519,7.105
				c-14.115,4.143-27.521,10.507-39.429,19.281c-16.497,12.152-29.814,28.13-40.143,45.748
				C1520.142,695.604,1513.922,742.992,1514.538,788.909z"/>
			<path style="fill:#FFFFFF;" d="M1523.721,754.164c3.547-41.573,15.785-83.633,43.332-115.861
				c17.072-19.973,39.443-34.394,64.078-41.376c9.291-3.986,19.242-6.414,29.38-7.591c9.131-1.062,19.01-1.355,27.928,1.383
				c4.725,0.668,9.431,1.487,14.07,2.639c39.151,9.724,73.327,35.455,97.575,67.201c26.714,34.972,42.8,76.898,52.464,119.527
				c10.059,44.379,13.411,93.04-4.048,136.068c-7.356,18.13-18.246,34.921-32.753,48.14c-16.059,14.635-35.979,22.862-56.673,28.649
				c-45.567,12.742-93.035,13.347-137.938-2.534c-20.634-7.298-41.956-17.495-56.935-33.91
				c-14.969-16.403-24.52-38.681-30.658-59.769c-6.583-22.62-8.34-46.283-9.778-69.689
				C1522.276,802.788,1521.652,778.404,1523.721,754.164z"/>
			<path style="fill:#CBCCCE;" d="M1852.549,780.085c-9.663-42.629-25.75-84.556-52.463-119.527
				c-24.249-31.745-58.425-57.477-97.576-67.201c-4.639-1.152-9.344-1.971-14.07-2.64c-8.918-2.737-18.797-2.443-27.928-1.382
				c-10.139,1.177-20.089,3.605-29.38,7.59c-24.636,6.983-47.007,21.404-64.079,41.376c-27.547,32.229-39.785,74.289-43.332,115.862
				c-2.069,24.239-1.444,48.623,0.045,72.875c1.438,23.407,3.195,47.069,9.778,69.688c6.138,21.089,15.689,43.367,30.658,59.77
				c14.979,16.414,36.301,26.612,56.935,33.91c44.902,15.88,92.37,15.276,137.938,2.534c20.694-5.786,40.615-14.013,56.673-28.649
				c14.507-13.219,25.397-30.011,32.753-48.14C1865.96,873.127,1862.609,824.464,1852.549,780.085z M1830.836,848.276
				c-0.385,19.131-3.007,38.555-11.14,56.044c-8.182,17.593-21.442,32.337-37.372,43.289c-16.366,11.251-35.348,18.523-54.76,22.425
				c-20.193,4.058-41.048,4.606-61.448,1.838c-20.054-2.721-39.793-8.707-57.559-18.486c-18.965-10.437-34.584-25.057-45.628-43.727
				c-15.263-25.799-21.992-55.775-23.967-85.442c-0.999-15.005-0.783-30.081,0.31-45.074c0.794-10.889,1.775-21.793,3.391-32.594
				c0.249-1.662,0.536-3.323,0.808-4.984c0.639-7.669,1.581-15.311,2.923-22.887c3.743-21.135,10.533-42.239,22.453-60.249
				c1.889-2.855,3.955-5.588,6.102-8.256c6.604-10.156,14.783-19.166,25.27-25.02c1.316-0.734,2.539,0.227,2.794,1.353
				c4.505-2.498,9.174-4.715,13.949-6.714c18.742-7.845,39.229-11.669,59.516-9.405c18.769,2.094,36.613,9.093,52.368,19.415
				c16.639,10.899,30.908,25.113,43.052,40.798c13.04,16.843,23.748,35.43,32.412,54.872c8.81,19.767,15.61,40.44,20.179,61.595
				C1828.822,807.132,1831.248,827.73,1830.836,848.276z"/>
			<path style="opacity:0.55;fill:#A47A5C;" d="M1471.831,114.43c-9.274,1.549-18.335,5.206-26.784,9.604
				c-11.46,13.557-20.485,29.656-25.547,46.326c-3.618,11.916-4.499,24.852-3.285,37.218c1.229,12.526,5.436,24.398,12.423,34.772
				c1.802-7.713,4.386-15.114,7.396-22.341C1428.826,181.949,1443.5,140.768,1471.831,114.43z"/>
			<path style="opacity:0.55;fill:#A47A5C;" d="M1360.173,247.633c-7.648-8.331-12.937-18.805-15.623-30.169
				c-5.353-22.633,0.126-45.672,7.071-67.379c-5.283,2.991-10.164,6.601-14.666,10.625c-0.17,0.245-0.354,0.48-0.52,0.726
				c-7.029,10.358-12.273,22.23-13.699,34.752c-1.382,12.128,1.248,23.941,5.933,35.105c8.343,19.882,24.316,37.936,46.154,41.801
				c-4.329-6.853-8.108-14.033-11.094-21.582c-0.578-1.461-1.101-2.943-1.616-4.427c-0.26,1.312-0.561,2.618-0.757,3.937
				C1360.921,249.908,1360.524,248.78,1360.173,247.633z"/>
			<path style="opacity:0.55;fill:#A47A5C;" d="M1251.856,169.336c-0.214-1.031-0.473-2.863-1.805-3.145
				c-0.551-0.115-3.387,2.804-3.869,3.231c-1.042,0.924-2.002,1.938-3.012,2.899c-0.844,3.451-1.432,6.977-1.75,10.535
				c-1.173,13.117,0.763,26.453,5.139,38.851c4.051,11.475,10.53,21.487,18.585,30.545c8.84,9.941,19.118,18.93,30.798,25.383
				c10.226,5.651,22.206,9.333,33.773,6.373c-2.064-6.739-5.264-13.012-9.03-18.968c-1-1.58-2.039-3.139-3.095-4.688
				c1.041,2.18,2.146,4.332,3.366,6.42c0.146,0.25,0.201,0.526,0.234,0.807c-4.268-0.475-8.499-1.233-12.658-2.396
				c-1.263-0.353-2.482-0.808-3.715-1.232c-17.66-12.885-34.011-28.328-43.502-48.168c-5.523-11.547-7.496-23.784-8.552-36.439
				C1252.49,176.059,1252.528,172.573,1251.856,169.336z"/>
			<path style="opacity:0.55;fill:#A47A5C;" d="M1224.272,358.5c13.334-13.523,30.361-23.463,48.692-28.424
				c8.604-2.328,17.669-3.617,26.594-3.27c3.891,0.151,7.542,0.78,11.114,1.651c15.743-4.815,31.908-8.466,47.731-13.008
				c-24.836-3.472-50.117-3.04-74.8-7.762c-12.071-2.31-23.704-6.073-34.859-11.229c-7.691-3.555-14.86-8.329-20.904-14.286
				c-10.888-10.731-17.466-24.973-19.505-40.051c-0.804-5.944-0.957-11.93-0.541-17.881c-4.557,9.961-8.139,20.42-9.238,31.34
				c-1.792,17.795,2.975,35.781,12.205,51.026c6.927,1.555,14.019,2.281,21.129,2.223c-1.192,0.558-2.393,1.096-3.621,1.572
				c-4.494,1.742-9.213,2.717-13.995,3.234c-2.428,0.263-4.88,0.374-7.332,0.381c-0.113-0.174-0.248-0.335-0.359-0.51
				c-18.492-3.41-35.869-11.893-49.693-24.937c0.83,13.104,3.995,25.85,9.619,37.975c9.518,20.516,24.833,37.712,43.785,49.476
				C1214.324,369.753,1218.975,363.87,1224.272,358.5z"/>
			<path style="opacity:0.55;fill:#A47A5C;" d="M1599.266,267.476c-0.66-0.396-1.346-0.747-2.02-1.12
				c-7.929-6.137-17.471-10.214-27.006-13.03c-4.044-1.194-8.181-2.114-12.346-2.907c4.236-0.46,8.526-0.602,12.85-0.349
				c4.101,0.239,8.147,0.839,12.116,1.706c4.009-3.66,7.716-7.651,10.818-12.094c7.489-10.727,12.408-26.201,9.018-39.469
				c-3.664,4.916-9.479,8.726-14.432,11.771c-11.025,6.775-22.638,13.042-35.109,16.699c-14.736,4.321-30.919,4.548-44.716-1.305
				c-1.609-1.593-3.092-3.326-4.451-5.146c0.283-2.257,0.698-4.505,1.242-6.741c4.565-9.801,11.507-18.838,18.599-26.205
				c5.216-5.417,11.073-10.287,17.342-14.44c3.092-2.048,6.307-3.888,9.61-5.571c1.657-0.844,3.454-1.547,5.021-2.55
				c1.878-1.203,3.519-2.086,1.098-3.522c-1.765-1.048-4.17-1.612-6.643-1.958c-5.822,1.408-11.569,3.134-17.19,5.062
				c-10.777,3.698-21.17,8.267-31.041,13.956c-13.312,7.673-25.214,18.402-34.802,30.363c-9.109,11.362-17.146,25.644-16.232,40.639
				c10.441-0.189,20.89-0.148,31.314,0.502c19.839,1.24,41.546,4.071,58.645,15.006c7.64,4.886,13.991,11.602,17.488,20.046
				c4.104,9.913,3.813,20.885,1.669,31.228c-0.353,1.7-2.633,1.716-3.472,0.453c-5.488-8.269-10.478-17.023-16.842-24.635
				c2.779,7.891,3.698,16.327,2.56,24.792c-3.08,22.932-18.556,43.017-35.852,57.488c-16.824,14.074-38.428,25.904-60.842,26.417
				c-0.937,0.021-2.013-0.893-1.899-1.9c0.619-5.491,3.686-10.193,6.997-14.474c3.712-4.798,7.968-9.122,11.925-13.711
				c4.748-5.506,8.189-12.444,11.55-18.861c1.926-3.68,3.728-7.419,5.445-11.199c-7.922,8.483-16.295,16.544-25.315,23.861
				c-18.027,14.623-38.324,25.421-60.51,32.174c-10.608,3.229-21.576,5.694-32.66,6.456c-9.167,0.631-19.104,0.145-27.321-4.394
				c-1.325-0.732-1.129-2.506,0-3.28c24.201-16.597,52.073-26.097,78.015-39.432c-12.438-5.631-27.55-4.761-40.66-2.844
				c-14.529,2.125-28.774,6.057-42.684,10.698c-13.146,4.386-26.212,9.259-38.476,15.757c-12.833,6.8-24.746,15.305-34.871,25.75
				c-10.533,10.87-18.824,23.604-25.086,37.358c-0.739,1.621-2.974,0.911-3.471-0.454c-4.866-13.38-3.581-28.235,0.509-41.639
				c3.909-12.813,10.39-24.846,18.672-35.354c8.332-10.573,18.621-18.528,30.454-24.865c5.731-3.069,11.637-5.656,17.637-7.99
				c-0.165,0.01-0.336,0.02-0.501,0.03c-9.386,0.585-18.725,2.572-27.58,5.727c-20.968,7.47-38.01,21.517-49.857,39.344
				c0.072,0.04,0.149,0.07,0.222,0.11c-1.585,2.425-2.963,4.991-4.134,7.68c-0.214-0.111-0.434-0.208-0.647-0.32
				c-5.234,9.466-9.112,19.792-11.437,30.643c-3.814,17.798-3.628,36.102,0.156,53.893c2.403,11.3,6.195,23.902,13.555,33.253
				c0.997,2.43,2.198,4.83,3.963,6.717c5.633,6.01,11.759-2.854,14.832-7.1c0.844-1.167,1.65-2.418,2.482-3.651
				c0.691-0.872,1.34-1.775,2.044-2.635c8.432-10.278,17.916-19.605,28.212-28.008c21.823-17.809,46.654-31.385,72.596-42.188
				c5.04-2.098,10.134-4.062,15.247-5.97c2.729-0.343,5.455-0.706,8.182-1.005c-1.183,1.106-2.339,2.237-3.438,3.406
				c-4.416,4.693-8.536,10.221-10.442,16.47c-7.034,7.608-14.019,15.263-21.018,22.892c15.928,0.406,31.817-0.745,47.526-3.584
				c31.938-5.773,62.693-17.922,90.086-35.308c6.581-4.177,12.954-8.665,19.111-13.431c12.184-6.735,23.96-14.199,35.289-22.273
				c-1.848,1.992-3.66,4.018-5.57,5.95c-0.697,1.761-1.433,3.514-2.221,5.258c-4.568,10.121-10.205,19.57-16.682,28.49
				c16.368-4.984,31.124-13.879,42.632-26.916c3.979-4.507,7.385-9.508,10.325-14.769c6.989-8.862,12.999-18.487,19.501-27.765
				c-0.013,0.072-0.026,0.149-0.038,0.219c-1.025,5.661-2.708,11.229-4.787,16.588c-0.051,0.131-0.119,0.254-0.17,0.385
				c2.355,4.03,3.948,8.382,5.762,12.778c1.875,4.546,3.75,9.092,5.631,13.634c15.945-12.041,23.364-32.57,19.713-51.549
				c1.385-8.658,2.034-17.428,1.893-26.187c12.069,8.894,21.61,20.792,27.684,34.49c5.283-9.165,8.253-19.428,8.896-30.157
				C1632.411,304.673,1620.649,280.292,1599.266,267.476z"/>
		</g>
		<g>
			
				<ellipse transform="matrix(0.7071 -0.7071 0.7071 0.7071 -246.3226 1065.0331)" style="fill:#412600;" cx="1162.447" cy="829.854" rx="131.143" ry="131.144"/>
			
				<ellipse transform="matrix(0.7071 -0.7071 0.7071 0.7071 -246.3226 1065.0331)" style="fill:#754A07;" cx="1162.447" cy="829.854" rx="121.149" ry="121.15"/>
			
				<ellipse transform="matrix(0.7071 -0.7071 0.7071 0.7071 -245.4819 1063.1627)" style="fill:#412600;" cx="1160.61" cy="827.904" rx="78.238" ry="78.238"/>
			
				<ellipse transform="matrix(0.7071 -0.7071 0.7071 0.7071 -225.2996 1038.452)" style="fill:#FFFFFF;" cx="1140.873" cy="791.187" rx="21.278" ry="21.278"/>
		</g>
		<g>
			
				<ellipse transform="matrix(0.7071 -0.7071 0.7071 0.7071 -89.6008 1427.3054)" style="fill:#412600;" cx="1678.11" cy="821.81" rx="131.143" ry="131.144"/>
			
				<ellipse transform="matrix(0.7071 -0.7071 0.7071 0.7071 -89.6008 1427.3054)" style="fill:#754A07;" cx="1678.11" cy="821.81" rx="121.149" ry="121.15"/>
			
				<ellipse transform="matrix(0.0836 -0.9965 0.9965 0.0836 719.212 2421.7627)" style="fill:#412600;" cx="1676.272" cy="819.859" rx="78.238" ry="78.238"/>
			<circle style="fill:#FFFFFF;" cx="1656.535" cy="783.143" r="21.278"/>
		</g>
	</g>
</g>
</svg>
